<svg version="1.2" baseProfile="tiny-ps" xmlns="http://www.w3.org/2000/svg" viewBox="0 0 307 262" width="307" height="262">
	<title>Spaceship_06_BLUE-svg</title>
	<style>
		tspan { white-space:pre }
		.shp0 { fill: #363636 } 
		.shp1 { fill: #292929 } 
		.shp2 { fill: #1c1c1c } 
		.shp3 { fill: #212121 } 
		.shp4 { fill: #91c9e8 } 
		.shp5 { fill: #3399cc } 
		.shp6 { fill: #404040 } 
		.shp7 { fill: none;stroke: #000000;stroke-width: 2 } 
	</style>
	<g id="Ideas">
	</g>
	<g id="Tools">
	</g>
	<g id="Spaceship6">
		<g id="Layer">
			<g id="Layer">
				<g id="XMLID_34_">
					<g id="Layer">
						<path id="Layer" class="shp0" d="M2.3 47.9L2.3 15L44 15L44 47.5L43.8 47.4L43.8 47.8C39.7 45.3 35.2 43.6 30.6 42.8L30.6 29.8C30.6 25.7 27.3 22.4 23.2 22.4L23.2 22.4C19.1 22.4 15.8 25.7 15.8 29.8L15.8 42.8C11.2 43.7 6.7 45.4 2.5 47.9L2.3 47.9Z" />
						<path id="Layer" class="shp1" d="M2.3 86.4L2.3 47.9L2.4 47.8C6.5 45.3 11.1 43.6 15.7 42.7L15.7 81.2C11.1 82.1 6.7 83.7 2.5 86.2L2.3 86.4Z" />
						<path id="Layer" class="shp0" d="M2.3 118.3L2.3 86.3L2.6 86.1C6.7 83.6 11.2 81.9 15.8 81.1L15.8 104.2C15.8 108.3 19.1 111.6 23.2 111.6C27.3 111.6 30.6 108.3 30.6 104.2C30.6 104.1 30.6 104.1 30.6 104L30.6 81.1C35.3 82 39.8 83.7 44 86.3L44 118.3C44 121.7 41.4 124.5 38.1 124.9C37.8 124.9 37.6 124.9 37.3 124.9L9 124.9C8.7 124.9 8.5 124.9 8.2 124.9C4.9 124.6 2.3 121.8 2.3 118.3Z" />
						<path id="Layer" class="shp2" d="M44 14.9L2.3 14.9C2.3 12.2 3.4 9.8 5.2 8C7 6.2 9.4 5.1 12.1 5.1L34.3 5.1C39.6 5.2 44 9.6 44 14.9Z" />
						<path id="Layer" class="shp3" d="M8.2 125L8.2 125C8.5 125 8.7 125 9 125L37.4 125C37.7 125 37.9 125 38.2 125L38.2 125C37.1 134.1 30.8 141 23.2 141C19 141 15.2 138.9 12.5 135.4C10.2 132.7 8.7 129.1 8.2 125Z" />
						<path id="Layer" class="shp4" d="M15.8 42.7L15.8 29.7C15.8 25.6 19.1 22.3 23.2 22.3L23.2 22.3C27.3 22.3 30.6 25.6 30.6 29.7L30.6 42.7L30.6 81.2L30.6 104.1C30.5 100.1 27.2 96.9 23.2 96.9C19.1 96.9 15.8 100.2 15.8 104.3L15.8 81.2L15.8 42.7Z" />
						<path id="Layer" class="shp5" d="M15.8 104.3C15.8 100.2 19.1 96.9 23.2 96.9C27.2 96.9 30.5 100.1 30.6 104.1C30.6 104.2 30.6 104.2 30.6 104.3C30.6 108.4 27.3 111.7 23.2 111.7C19.1 111.7 15.8 108.3 15.8 104.3Z" />
						<path id="Layer" class="shp1" d="M30.6 81.2L30.6 42.7C35.2 43.6 39.7 45.2 43.8 47.7L43.8 86.1L44 86.2L44 86.3C39.8 83.8 35.2 82.1 30.6 81.2Z" />
						<path id="Layer" class="shp3" d="M44 47.9L44 47.5L44.1 47.5L118.8 82.5L118.8 83.4C118.8 86.4 118.8 89.5 118.8 92.7L44 58.5L44 47.9Z" />
						<path id="Layer" class="shp1" d="M44 86.3L44 58.4L118.8 92.6L118.8 121.5L97.9 111.7L97.2 97.6L76 87.4L63.7 95.5L63.7 95.6L44 86.3Z" />
						<path id="Layer" class="shp4" d="M63.7 95.6L63.7 95.5L76 87.4L97.2 97.6L97.9 111.7L63.7 95.6Z" />
						<path id="Layer" fill-rule="evenodd" class="shp0" d="M78.7 202.7L78.7 188.8C78.7 178.4 87.1 166 97.5 166L104.2 166L104.2 206.4L98.2 200.8C97.3 199.9 96 199.4 94.7 199.4L88.2 199.4C86.9 199.4 85.7 199.9 84.7 200.8L79.8 205.4C79.2 204.7 78.7 203.7 78.7 202.7ZM88.6 179L88.6 192.4C88.6 194 89.9 195.3 91.5 195.3C93.1 195.3 94.4 194 94.4 192.4L94.4 179C94.4 177.4 93.1 176 91.5 176C89.9 176.1 88.6 177.4 88.6 179Z" />
						<path id="Layer" class="shp5" d="M79.9 205.3L84.8 200.7C85.7 199.8 87 199.3 88.3 199.3L94.8 199.3C96.1 199.3 97.4 199.8 98.3 200.7L104.3 206.3L100.6 206.3L93.1 206.3L90.1 206.3L82.6 206.3L82.5 206.3C81.4 206.4 80.5 206 79.9 205.3Z" />
						<path id="Layer" class="shp0" d="M90 230.3L82.5 230.3L82.5 206.4L90 206.4L90 230.3Z" />
						<path id="Layer" class="shp2" d="M82.5 232.1L82.5 230.3L90 230.3L90 232.1C89.2 233 88.7 233.4 87.8 234.3L84.6 234.3C83.8 233.4 83.3 233 82.5 232.1Z" />
						<path id="Layer" class="shp5" d="M88.6 192.4L88.6 179C88.6 177.4 89.9 176 91.5 176L91.5 176C93.1 176 94.4 177.3 94.4 179L94.4 192.4C94.4 194 93.1 195.3 91.5 195.3L91.5 195.3C89.9 195.4 88.6 194 88.6 192.4Z" />
						<path id="Layer" class="shp0" d="M100.6 230.3L93.1 230.3L93.1 206.4L100.6 206.4L100.6 230.3Z" />
						<path id="Layer" class="shp2" d="M93 232.1L93 230.3L100.5 230.3L100.5 232.1C99.7 233 99.2 233.4 98.3 234.3L95.1 234.3C94.4 233.4 93.9 233 93 232.1Z" />
						<path id="Layer" class="shp0" d="M104.5 214.1L104.5 166.4C104.5 157.3 107.3 148.9 112.2 141.9L112.3 142C113.8 146.6 116.1 150.8 118.9 154.5C121.1 157.4 122.1 161.1 121.9 164.7C121.9 165.1 121.9 165.5 121.9 165.8L121.9 194.3C121.9 198.7 123.4 202.9 126 206.3C126.2 206.5 126.4 206.7 126.5 207L126.5 207C126.4 207 126.3 207.1 126.2 207.2C125.3 207.8 124.5 208.6 124 209.7L122.9 212.1C121.6 214.9 122.8 218 125.2 219.4C119.2 224.4 114.7 231.1 112.2 238.7C107.4 231.7 104.5 223.2 104.5 214.1Z" />
						<path id="Layer" fill-rule="evenodd" class="shp6" d="M112.3 142L112.2 141.9C114.1 139.2 116.3 136.7 118.8 134.5C121.9 131.7 125.4 129.4 129.2 127.7C129.5 127.5 129.9 127.4 130.2 127.2L130.2 132.2C130.2 140 136.5 146.3 144.3 146.3L144.4 146.3C146.4 146.3 148 147.9 148 149.9L148 206.4L129.2 206.4C128.3 206.4 127.3 206.6 126.5 207.1C126.3 206.9 126.1 206.7 126 206.4C123.3 203 121.9 198.8 121.9 194.4C121.9 194 121.9 165.1 121.9 164.8C122.1 161.1 121.1 157.5 118.9 154.6C116 150.8 113.8 146.5 112.3 142ZM133.9 162.1L133.9 191.6C133.9 192.2 134.2 192.8 134.6 193.2C135 193.6 135.6 193.9 136.2 193.9C137.5 193.9 138.5 192.9 138.5 191.6L138.5 162.1C138.5 160.8 137.5 159.8 136.2 159.8C134.9 159.8 133.9 160.8 133.9 162.1Z" />
						<path id="Layer" class="shp0" d="M112.3 238.7C114.8 231.1 119.3 224.4 125.3 219.4C126.1 219.8 126.9 220.1 127.9 220.1L131.7 220.2C131.7 222.3 132.6 224.2 134.1 225.7L142.8 233.8L142.8 235C142.8 239.7 146.6 243.5 151.2 243.5L154.8 243.5C159.5 243.5 163.2 239.7 163.2 235L163.2 233.8L171.8 225.7C173.4 224.2 174.2 222.3 174.2 220.2L174.3 220.2L178.1 220.1C179.1 220.1 179.9 219.8 180.7 219.4C186.6 224.5 191.2 231.1 193.7 238.7C186 249.7 173.2 256.9 158.7 256.9L147.2 256.9C132.8 256.8 120 249.6 112.3 238.7Z" />
						<path id="Layer" class="shp1" d="M118.8 121.5L118.8 92.6L118.8 87.9L118.8 107.2C118.8 109.2 120.1 111 122.1 112.3C124.2 113.6 127 114.4 130.2 114.4C136.5 114.4 141.6 111.2 141.6 107.2L141.6 124C137.6 124.5 133.8 125.6 130.2 127.2C129.8 127.4 129.5 127.5 129.2 127.7C125.4 129.5 121.9 131.8 118.8 134.5L118.8 121.5L118.8 121.5Z" />
						<path id="Layer" class="shp1" d="M118.8 87.9L118.8 83.3L118.8 82.4L118.8 78C118.8 74.6 119.3 71.4 120.2 68.4C120.8 66.2 121.7 64.1 122.8 62.1C123.5 60.7 124.4 59.4 125.3 58.1L125.3 100.9C125.3 101.8 125.9 102.7 126.7 103.3C127.6 103.9 128.9 104.3 130.2 104.3C132.9 104.3 135.2 102.8 135.2 100.9L135.2 48.9C135.9 48.5 136.6 48.1 137.3 47.7C138.7 47 140.1 46.3 141.6 45.8C141.7 45.8 141.7 45.7 141.8 45.7C141.8 45.8 141.9 45.9 141.9 46L141.8 46L141.6 46L141.6 47.6L141.6 107.1C141.6 111.1 136.5 114.3 130.2 114.3C127.1 114.3 124.2 113.5 122.1 112.2C120 110.9 118.8 109.1 118.8 107.1L118.8 87.9Z" />
						<path id="Layer" class="shp6" d="M125.3 219.4C122.9 218 121.7 214.9 123 212.1L124.1 209.7C124.6 208.7 125.4 207.8 126.3 207.2C126.4 207.1 126.5 207.1 126.6 207C127.4 206.6 128.3 206.3 129.3 206.3L148 206.3L158 206.3L176.8 206.3C177.7 206.3 178.7 206.5 179.5 207C180.6 207.6 181.4 208.5 182 209.6L183.1 212C184.4 214.8 183.2 217.9 180.8 219.3C180 219.7 179.2 220 178.2 220L174.4 220.1L174.3 220.1C174.3 218.2 173.5 216.5 172.3 215.3C171.1 214.1 169.4 213.3 167.5 213.3L163.3 213.3L163.2 213.3L142.8 213.3L138.5 213.3C136.6 213.3 134.9 214.1 133.7 215.3C132.5 216.5 131.7 218.2 131.7 220.1L127.9 220C126.9 220.1 126 219.8 125.3 219.4Z" />
						<path id="Layer" class="shp5" d="M125.2 100.9L125.2 58C125.7 57.3 126.2 56.6 126.8 55.9C127.7 54.9 128.6 53.9 129.6 53C130.7 52 131.9 51 133.1 50.1C133.7 49.6 134.4 49.2 135.1 48.8L135.1 100.8C135.1 102.7 132.9 104.2 130.1 104.2C128.7 104.2 127.5 103.8 126.6 103.2C125.8 102.7 125.2 101.8 125.2 100.9Z" />
						<path id="Layer" class="shp0" d="M130.2 132.1L130.2 127.1C133.8 125.5 137.6 124.5 141.6 123.9C143.5 123.7 145.4 123.5 147.3 123.5L158.8 123.5C160.7 123.5 162.6 123.6 164.5 123.9C168.5 124.4 172.3 125.5 175.9 127.1L175.9 132.1C175.9 136 174.3 139.5 171.8 142.1C169.2 144.7 165.7 146.2 161.8 146.2C159.8 146.2 158.2 147.8 158.2 149.8C158.2 161.8 158.1 199.3 158.1 199.3C157.2 197.4 155.3 196.1 153.1 196.1C150.9 196.1 149 197.4 148.1 199.3L148.1 149.8C148.1 147.8 146.5 146.2 144.5 146.2L144.4 146.2C136.5 146.2 130.2 139.9 130.2 132.1Z" />
						<path id="Layer" class="shp5" d="M134.1 225.7C132.5 224.2 131.7 222.3 131.7 220.2C131.7 218.3 132.5 216.6 133.7 215.4C134.9 214.2 136.6 213.4 138.5 213.4L142.8 213.4L142.8 233.8L134.1 225.7Z" />
						<path id="Layer" class="shp4" d="M133.9 191.6L133.9 162.1C133.9 160.8 134.9 159.8 136.2 159.8C137.5 159.8 138.5 160.8 138.5 162.1L138.5 191.6C138.5 192.9 137.5 193.9 136.2 193.9C135.6 193.9 135 193.6 134.6 193.2C134.1 192.8 133.9 192.2 133.9 191.6Z" />
						<path id="Layer" class="shp3" d="M141.5 47.7L141.5 46.1L141.7 46.1C143.1 51.1 147.6 54.7 152.9 54.7C158.2 54.7 162.7 51.1 164.1 46.1L164.3 46.1L164.3 47.7L164.3 107.2L164.3 124C162.4 123.8 160.5 123.6 158.6 123.6L147.1 123.6C145.2 123.6 143.3 123.7 141.4 124L141.4 107.3L141.4 47.7L141.5 47.7Z" />
						<path id="Layer" class="shp1" d="M141.8 46.1L141.9 46.1C143.4 50.8 147.8 54.1 153 54.1C158.3 54.1 162.8 50.6 164.2 45.7C164.3 45.7 164.3 45.7 164.4 45.8C166.7 46.6 168.8 47.6 170.8 48.9L170.8 100.9C170.8 102.8 173 104.3 175.8 104.3C177.2 104.3 178.4 103.9 179.3 103.3C180.2 102.7 180.7 101.8 180.7 100.9L180.7 58.1C181 58.5 181.2 58.9 181.5 59.2C181.7 59.5 181.9 59.8 182 60C182.4 60.7 182.8 61.3 183.2 62C183.2 62 183.2 62 183.2 62.1C183.5 62.6 183.7 63.1 183.9 63.5L183.9 63.5C184.1 64 184.3 64.4 184.5 64.9C184.5 65 184.6 65 184.6 65.1C184.8 65.6 185 66.1 185.2 66.6C185.4 67.1 185.6 67.7 185.7 68.2C186.6 71.3 187.1 74.5 187.1 77.8L187.1 82.2L187.1 83.1L187.1 87.7L187.1 107C187.1 109 185.8 110.8 183.8 112.1C181.7 113.4 178.9 114.2 175.7 114.2C169.4 114.2 164.3 111 164.3 107L164.3 47.5L164.3 45.9L164.1 45.9C162.7 50.9 158.2 54.5 152.9 54.5C147.6 54.5 143.2 51 141.8 46.1Z" />
						<path id="Layer" class="shp4" d="M163.2 233.8L163.2 235C163.2 239.7 159.4 243.5 154.8 243.5L151.2 243.5C146.5 243.5 142.8 239.7 142.8 235L142.8 233.8L142.8 213.4L163.2 213.4L163.3 213.4L163.3 233.8L163.2 233.8Z" />
						<path id="Layer" class="shp4" d="M148 206.4L148 199.4C148.9 197.5 150.8 196.2 153 196.2C155.2 196.2 157.1 197.5 158 199.4L158 206.4L148 206.4Z" />
						<path id="Layer" fill-rule="evenodd" class="shp6" d="M158 199.4C158 199.4 158.1 161.9 158.1 149.9C158.1 147.9 159.7 146.3 161.7 146.3C165.6 146.3 169.1 144.7 171.7 142.2C174.3 139.6 175.8 136.1 175.8 132.2L175.8 127.2C176.2 127.4 176.5 127.5 176.9 127.7C180.7 129.5 184.1 131.8 187.2 134.5C189.7 136.7 191.9 139.2 193.8 141.9L193.7 142C192.2 146.6 189.9 150.8 187.1 154.5C184.9 157.4 183.9 161.1 184.1 164.7C184.1 165.1 184.1 165.5 184.1 165.8L184.1 194.3C184.1 198.7 182.6 202.9 180 206.3C179.8 206.5 179.7 206.7 179.5 207C178.7 206.6 177.8 206.3 176.8 206.3L158 206.3L158 199.4ZM167.5 162.1L167.5 191.6C167.5 192.9 168.5 193.9 169.8 193.9C170.4 193.9 171 193.6 171.4 193.2C171.8 192.8 172.1 192.2 172.1 191.6L172.1 162.1C172.1 160.8 171.1 159.8 169.8 159.8C168.6 159.8 167.5 160.8 167.5 162.1Z" />
						<path id="Layer" class="shp5" d="M163.2 233.8L163.2 213.4L167.4 213.4C169.3 213.4 171 214.2 172.2 215.4C173.4 216.6 174.2 218.3 174.2 220.2C174.2 222.3 173.3 224.2 171.8 225.7L163.2 233.8Z" />
						<path id="Layer" class="shp1" d="M164.4 124L164.4 107.3C164.4 111.3 169.5 114.5 175.8 114.5C178.9 114.5 181.8 113.7 183.9 112.4C186 111.1 187.2 109.3 187.2 107.3L187.2 88L187.2 92.7L187.2 121.6L187.2 134.5C184.1 131.8 180.7 129.5 176.9 127.7C176.5 127.5 176.2 127.4 175.8 127.2C172.3 125.6 168.4 124.5 164.4 124Z" />
						<path id="Layer" class="shp4" d="M167.5 191.6L167.5 162.1C167.5 160.8 168.5 159.8 169.8 159.8C171.1 159.8 172.1 160.8 172.1 162.1L172.1 191.6C172.1 192.2 171.8 192.8 171.4 193.2C171 193.6 170.4 193.9 169.8 193.9C168.6 193.9 167.5 192.8 167.5 191.6Z" />
						<path id="Layer" class="shp5" d="M170.9 100.9L170.9 48.9C172.9 50.1 174.7 51.5 176.4 53.1C176.7 53.3 176.9 53.6 177.1 53.8C177.3 54 177.6 54.3 177.8 54.5C178.3 55 178.7 55.5 179.2 56C179.8 56.7 180.3 57.4 180.8 58.1L180.8 58.1L180.8 100.9C180.8 101.8 180.3 102.7 179.4 103.3C178.5 103.9 177.2 104.3 175.9 104.3C173.1 104.3 170.9 102.8 170.9 100.9Z" />
						<path id="Layer" class="shp0" d="M180 206.4C182.7 203 184.1 198.8 184.1 194.4L184.1 165.9C184.1 165.5 184.1 165.1 184.1 164.8C183.9 161.1 184.9 157.5 187.1 154.6C190 150.9 192.2 146.6 193.7 142.1L193.8 142C198.7 148.9 201.5 157.4 201.5 166.5L201.5 214.2C201.5 223.4 198.6 231.9 193.7 238.8C191.2 231.2 186.7 224.6 180.7 219.5C183.1 218.1 184.3 215 183 212.2L181.9 209.8C181.4 208.7 180.5 207.8 179.4 207.2C179.7 206.8 179.9 206.6 180 206.4Z" />
						<path id="Layer" class="shp3" d="M262 47.9L262 58.5L187.2 92.7C187.2 89.5 187.2 86.4 187.2 83.4L187.2 82.5L261.9 47.5L262 47.5L262 47.9L262 47.9Z" />
						<path id="Layer" class="shp1" d="M187.2 121.5L187.2 92.6L262 58.4L262 86.3L242.3 95.6L242.3 95.5L229.9 87.4L208.8 97.6L208.1 111.7L187.2 121.5Z" />
						<path id="Layer" fill-rule="evenodd" class="shp0" d="M201.7 206.4L201.7 166L204.4 166C217 166 227.2 176.3 227.2 188.8L227.2 202.7C227.2 203.7 226.8 204.7 226.1 205.3L221.2 200.7C220.2 199.8 219 199.3 217.7 199.3L211.2 199.3C209.9 199.3 208.6 199.8 207.7 200.7L201.7 206.4ZM211.6 179L211.6 192.4C211.6 194 212.9 195.3 214.5 195.3C216.1 195.3 217.4 194 217.4 192.4L217.4 179C217.4 177.4 216.1 176 214.5 176C212.9 176.1 211.6 177.4 211.6 179Z" />
						<path id="Layer" class="shp5" d="M201.7 206.4L207.7 200.8C208.6 199.9 209.9 199.4 211.2 199.4L217.7 199.4C219 199.4 220.2 199.9 221.2 200.8L226.1 205.4C225.4 206.1 224.5 206.5 223.5 206.5L223.4 206.5L215.9 206.5L212.9 206.5L205.4 206.5L201.7 206.5L201.7 206.4Z" />
						<path id="Layer" class="shp0" d="M212.9 230.3L205.4 230.3L205.4 206.4L212.9 206.4L212.9 230.3Z" />
						<path id="Layer" class="shp2" d="M205.4 232.1L205.4 230.3L212.9 230.3L212.9 232.1C212.1 233 211.6 233.4 210.7 234.3L207.5 234.3C206.7 233.4 206.3 233 205.4 232.1Z" />
						<path id="Layer" class="shp4" d="M208.1 111.7L208.8 97.6L229.9 87.4L242.3 95.5L242.3 95.6L208.1 111.7Z" />
						<path id="Layer" class="shp5" d="M211.6 192.4L211.6 179C211.6 177.4 212.9 176 214.5 176L214.5 176C216.1 176 217.4 177.3 217.4 179L217.4 192.4C217.4 194 216.1 195.3 214.5 195.3L214.5 195.3C212.9 195.4 211.6 194 211.6 192.4Z" />
						<path id="Layer" class="shp0" d="M223.5 230.3L216 230.3L216 206.4L223.5 206.4L223.5 230.3Z" />
						<path id="Layer" class="shp2" d="M216 232.1L216 230.3L223.5 230.3L223.5 232.1C222.7 233 222.2 233.4 221.3 234.3L218.1 234.3C217.3 233.4 216.8 233 216 232.1Z" />
						<path id="Layer" class="shp0" d="M262 47.4L262 14.9L303.7 14.9L303.7 47.8L303.6 47.7C299.4 45.2 294.9 43.5 290.3 42.6L290.3 29.6C290.3 25.5 287 22.2 282.9 22.2L282.9 22.2C278.8 22.2 275.5 25.5 275.5 29.6L275.5 42.6C270.9 43.5 266.4 45.1 262.3 47.6L262.3 47.2L262 47.4Z" />
						<path id="Layer" class="shp1" d="M262 86.4L262 86.3L262.2 86.2L262.2 47.8C266.3 45.3 270.8 43.6 275.4 42.8L275.4 81.3C270.7 82.1 266.2 83.8 262 86.4Z" />
						<path id="Layer" class="shp0" d="M262 118.3L262 86.3C266.2 83.7 270.8 82 275.4 81.1L275.4 104C275.4 104.1 275.4 104.1 275.4 104.2C275.4 108.3 278.7 111.6 282.8 111.6C286.9 111.6 290.2 108.3 290.2 104.2L290.2 81.1C294.8 82 299.2 83.6 303.4 86.1L303.7 86.3L303.7 118.3C303.7 121.7 301.1 124.5 297.8 124.9C297.5 124.9 297.3 124.9 297 124.9L268.7 124.9C268.4 124.9 268.2 124.9 267.9 124.9C264.6 124.6 262 121.8 262 118.3Z" />
						<path id="Layer" class="shp2" d="M303.7 14.9L262 14.9C262 9.5 266.4 5.1 271.8 5.1L294 5.1C296.7 5.1 299.1 6.2 300.9 8C302.6 9.8 303.7 12.2 303.7 14.9Z" />
						<path id="Layer" class="shp3" d="M267.9 125L267.9 125C268.2 125 268.4 125 268.7 125L297 125C297.3 125 297.5 125 297.8 125L297.8 125C297.3 129.1 295.8 132.7 293.6 135.5C290.8 139 287.1 141.1 282.9 141.1C275.3 141 269 134.1 267.9 125Z" />
						<path id="Layer" class="shp5" d="M275.4 104.1C275.5 100.1 278.8 96.9 282.8 96.9C286.9 96.9 290.2 100.2 290.2 104.3C290.2 108.4 286.9 111.7 282.8 111.7C278.7 111.7 275.4 108.4 275.4 104.3C275.4 104.2 275.4 104.1 275.4 104.1Z" />
						<path id="Layer" class="shp4" d="M275.4 42.7L275.4 29.7C275.4 25.6 278.7 22.3 282.8 22.3L282.8 22.3C286.9 22.3 290.2 25.6 290.2 29.7L290.2 42.7L290.2 81.2L290.2 104.3C290.2 100.2 286.9 96.9 282.8 96.9C278.8 96.9 275.5 100.1 275.4 104.1L275.4 81.2L275.4 42.7Z" />
						<path id="Layer" class="shp1" d="M290.2 81.2L290.2 42.7C294.8 43.6 299.3 45.3 303.5 47.8L303.6 47.9L303.6 86.4L303.3 86.2C299.3 83.7 294.8 82 290.2 81.2Z" />
					</g>
					<g id="Layer">
						<path id="Layer" class="shp7" d="M112.3 238.7C120 249.7 132.8 256.9 147.3 256.9L158.8 256.9C173.2 256.9 186 249.7 193.8 238.7C198.7 231.7 201.6 223.3 201.6 214.1L201.6 166.4C201.6 157.3 198.8 148.9 193.9 141.9C192 139.2 189.8 136.7 187.3 134.5C184.2 131.8 180.8 129.5 177 127.7C176.6 127.5 176.3 127.4 175.9 127.2C172.3 125.6 168.5 124.5 164.5 124C162.6 123.8 160.7 123.6 158.8 123.6L147.3 123.6C145.4 123.6 143.5 123.7 141.6 124C137.6 124.5 133.8 125.6 130.2 127.2C129.8 127.4 129.5 127.5 129.2 127.7C125.4 129.5 121.9 131.8 118.8 134.5C116.3 136.7 114.1 139.2 112.2 141.9C107.3 148.8 104.5 157.3 104.5 166.4L104.5 214.1C104.5 223.2 107.4 231.7 112.3 238.7Z" />
						<path id="Layer" class="shp7" d="M118.8 121.5L118.8 134.4" />
						<path id="Layer" class="shp7" d="M118.8 87.9L118.8 92.6" />
						<path id="Layer" class="shp7" d="M176.4 53.1C174.7 51.5 172.9 50.1 170.9 48.9C168.9 47.7 166.7 46.6 164.5 45.8C164.4 45.8 164.4 45.7 164.3 45.7C162.9 50.6 158.4 54.1 153.1 54.1C147.9 54.1 143.5 50.7 142 46.1C141.9 46 141.9 45.9 141.9 45.8C141.8 45.8 141.8 45.8 141.7 45.9C140.2 46.4 138.7 47.1 137.4 47.8C136.7 48.2 136 48.6 135.3 49C134.6 49.4 133.9 49.9 133.3 50.3C132.1 51.2 130.9 52.2 129.8 53.2" />
						<path id="Layer" class="shp7" d="M184 63.6C183.8 63.1 183.5 62.6 183.3 62.2" />
						<path id="Layer" class="shp7" d="M184.6 65C184.4 64.5 184.2 64 184 63.6" />
						<path id="Layer" class="shp7" d="M185.3 66.7C185.1 66.2 184.9 65.7 184.7 65.2" />
						<path id="Layer" class="shp7" d="M187.2 92.6L187.2 87.9" />
						<path id="Layer" class="shp7" d="M187.2 134.4L187.2 121.5" />
						<path id="Layer" class="shp7" d="M118.8 83.3C118.8 86.3 118.8 89.4 118.8 92.6L118.8 121.5L98 111.7L63.7 95.6L44 86.3L43.8 86.2L43.8 47.8L43.8 47.4L44 47.5L44.1 47.5L118.8 82.5" />
						<path id="Layer" class="shp7" d="M2.3 47.9L2.3 14.9" />
						<path id="Layer" class="shp7" d="M44 14.9L44 47.4L44 47.8L44 58.4L44 86.3L44 86.4L44 118.4C44 121.8 41.4 124.6 38.1 125C37.8 125 37.6 125 37.3 125L9 125C8.7 125 8.5 125 8.2 125C4.9 124.6 2.3 121.8 2.3 118.4L2.3 86.4" />
						<path id="Layer" class="shp7" d="M38.1 125C37 134.1 30.7 141 23.1 141C18.9 141 15.1 138.9 12.4 135.4C10.2 132.6 8.7 129 8.2 124.9" />
						<path id="Layer" class="shp7" d="M2.3 14.9C2.3 12.2 3.4 9.8 5.2 8C7 6.2 9.4 5.1 12.1 5.1L34.3 5.1C39.7 5.1 44.1 9.5 44.1 14.9L2.3 14.9L2.3 14.9Z" />
						<path id="Layer" class="shp7" d="M44.4 47.9L44 47.9L43.9 47.8C43.9 47.8 43.8 47.8 43.8 47.7C39.7 45.2 35.2 43.5 30.6 42.7" />
						<path id="Layer" class="shp7" d="M15.8 42.7C11.2 43.6 6.7 45.3 2.5 47.8L2.4 47.9L2.4 86.4L2.7 86.2C6.8 83.7 11.3 82 15.9 81.2" />
						<path id="Layer" class="shp7" d="M30.6 81.2C35.3 82.1 39.8 83.8 44 86.4" />
						<path id="Layer" class="shp7" d="M15.8 104.3C15.8 100.2 19.1 96.9 23.2 96.9C27.2 96.9 30.5 100.1 30.6 104.1C30.6 104.2 30.6 104.2 30.6 104.3C30.6 108.4 27.3 111.7 23.2 111.7C19.1 111.7 15.8 108.3 15.8 104.3Z" />
						<path id="Layer" class="shp7" d="M30.5 104.3L30.5 104.3L30.5 104.1L30.5 81.2L30.5 42.7L30.5 29.7C30.5 25.6 27.2 22.3 23.1 22.3L23.1 22.3C19 22.3 15.7 25.6 15.7 29.7L15.7 42.7L15.7 81.2L15.7 104.3L15.7 104.3" />
						<path id="Layer" class="shp7" d="M163.2 213.4L163.2 233.8L163.2 235C163.2 239.7 159.4 243.5 154.8 243.5L151.2 243.5C146.5 243.5 142.8 239.7 142.8 235L142.8 233.8L142.8 213.4L163.2 213.4Z" />
						<path id="Layer" class="shp7" d="M142.8 233.9L134.1 225.8C132.5 224.3 131.7 222.4 131.7 220.3C131.7 218.4 132.5 216.7 133.7 215.5C134.9 214.3 136.6 213.5 138.5 213.5L142.8 213.5" />
						<path id="Layer" class="shp7" d="M163.2 233.9L163.2 233.9L171.9 225.8C173.5 224.3 174.3 222.4 174.3 220.3C174.3 218.4 173.5 216.7 172.3 215.5C171.1 214.3 169.4 213.5 167.5 213.5L163.3 213.5L163.2 213.5" />
						<path id="Layer" class="shp7" d="M131.7 220.2L127.9 220.1C126.9 220.1 126.1 219.8 125.3 219.4C122.9 218 121.7 214.9 123 212.1L124.1 209.7C124.6 208.7 125.4 207.8 126.3 207.2C126.4 207.1 126.5 207.1 126.6 207C127.4 206.6 128.3 206.3 129.3 206.3" />
						<path id="Layer" class="shp7" d="M180 206.4L180.1 206.4" />
						<path id="Layer" class="shp7" d="M148 206.4L129.2 206.4" />
						<path id="Layer" class="shp7" d="M174.4 220.2L178.2 220.1C179.2 220.1 180 219.8 180.8 219.4C183.2 218 184.4 214.9 183.1 212.1L182 209.7C181.5 208.6 180.6 207.7 179.5 207.1C178.7 206.7 177.8 206.4 176.8 206.4L158 206.4" />
						<path id="Layer" class="shp7" d="M158 199.4L158 206.4L148 206.4L148 199.4" />
						<path id="Layer" class="shp7" d="M136.2 159.8C137.5 159.8 138.5 160.8 138.5 162.1L138.5 191.6C138.5 192.9 137.5 193.9 136.2 193.9C135.6 193.9 135 193.6 134.6 193.2C134.2 192.8 133.9 192.2 133.9 191.6L133.9 162.1C133.9 160.8 134.9 159.8 136.2 159.8Z" />
						<path id="Layer" class="shp7" d="M169.8 159.8C168.5 159.8 167.5 160.8 167.5 162.1L167.5 191.6C167.5 192.9 168.5 193.9 169.8 193.9C170.4 193.9 171 193.6 171.4 193.2C171.8 192.8 172.1 192.2 172.1 191.6L172.1 162.1C172.1 160.8 171.1 159.8 169.8 159.8Z" />
						<path id="Layer" class="shp7" d="M125.3 219.4C119.3 224.4 114.8 231.1 112.3 238.7" />
						<path id="Layer" class="shp7" d="M193.7 238.7C191.2 231.1 186.7 224.5 180.7 219.4" />
						<path id="Layer" class="shp7" d="M193.7 142C192.2 146.6 189.9 150.8 187.1 154.5C184.9 157.4 183.9 161.1 184.1 164.7C184.1 165.1 184.1 165.5 184.1 165.8L184.1 194.3C184.1 198.7 182.6 202.9 180 206.3C179.8 206.5 179.7 206.7 179.5 207" />
						<path id="Layer" class="shp7" d="M126.5 207C126.3 206.8 126.1 206.6 126 206.3C123.3 202.9 121.9 198.7 121.9 194.3L121.9 165.8C121.9 165.4 121.9 165 121.9 164.7C122.1 161 121.1 157.4 118.9 154.5C116.1 150.8 113.8 146.5 112.3 142" />
						<path id="Layer" class="shp7" d="M82.5 206.4L82.5 206.4C81.4 206.4 80.5 206 79.9 205.3C79.2 204.6 78.8 203.7 78.8 202.7L78.8 188.8C78.8 178.4 87.2 166 97.6 166L104.3 166L104.3 206.4L100.6 206.4" />
						<path id="Layer" class="shp7" d="M93 206.4L90 206.4" />
						<path id="Layer" class="shp7" d="M93 230.3L93 206.4L100.6 206.4L100.6 230.3" />
						<path id="Layer" class="shp7" d="M93 230.3L93 232.1C93.9 233 94.3 233.4 95.2 234.3L98.4 234.3C99.2 233.5 99.7 233 100.6 232.1L100.6 230.3L93 230.3Z" />
						<path id="Layer" class="shp7" d="M82.5 230.3L82.5 206.4L90 206.4L90 230.3" />
						<path id="Layer" class="shp7" d="M82.5 230.3L82.5 232.1C83.3 233 83.8 233.4 84.7 234.3L87.9 234.3C88.7 233.5 89.2 233 90.1 232.1L90.1 230.3L82.5 230.3Z" />
						<path id="Layer" class="shp7" d="M104.3 206.4L98.3 200.8C97.4 199.9 96.1 199.4 94.8 199.4L88.3 199.4C87 199.4 85.8 199.9 84.8 200.8L79.9 205.4" />
						<path id="Layer" class="shp7" d="M91.5 176.1L91.5 176.1C93.1 176.1 94.5 177.4 94.5 179.1L94.5 192.5C94.5 194.1 93.2 195.4 91.6 195.4L91.6 195.4C90 195.4 88.7 194.1 88.7 192.5L88.7 179C88.6 177.4 89.9 176.1 91.5 176.1Z" />
						<path id="Layer" class="shp7" d="M223.5 206.4L223.5 206.4C224.6 206.4 225.5 206 226.1 205.3C226.8 204.6 227.2 203.7 227.2 202.7L227.2 188.8C227.2 176.2 216.9 166 204.4 166L201.7 166L201.7 206.4L205.4 206.4" />
						<path id="Layer" class="shp7" d="M212.9 206.4L216 206.4" />
						<path id="Layer" class="shp7" d="M212.9 230.3L212.9 206.4L205.4 206.4L205.4 230.3" />
						<path id="Layer" class="shp7" d="M212.9 230.3L212.9 232.1C212.1 233 211.6 233.4 210.7 234.3L207.5 234.3C206.6 233.5 206.2 233 205.3 232.1L205.3 230.3L212.9 230.3Z" />
						<path id="Layer" class="shp7" d="M223.5 230.3L223.5 206.4L216 206.4L216 230.3" />
						<path id="Layer" class="shp7" d="M223.5 230.3L223.5 232.1C222.7 233 222.2 233.4 221.3 234.3L218.1 234.3C217.3 233.5 216.8 233 215.9 232.1L215.9 230.3L223.5 230.3Z" />
						<path id="Layer" class="shp7" d="M201.7 206.4L207.7 200.8C208.6 199.9 209.9 199.4 211.2 199.4L217.7 199.4C219 199.4 220.2 199.9 221.2 200.8L226.1 205.4" />
						<path id="Layer" class="shp7" d="M214.5 176.1L214.5 176.1C212.9 176.1 211.6 177.4 211.6 179.1L211.6 192.5C211.6 194.1 212.9 195.4 214.5 195.4L214.5 195.4C216.1 195.4 217.4 194.1 217.4 192.5L217.4 179C217.4 177.4 216.1 176.1 214.5 176.1Z" />
						<path id="Layer" class="shp7" d="M164.4 107.2L164.4 124" />
						<path id="Layer" class="shp7" d="M141.5 47.7L141.5 46.1L141.7 46.1C143.1 51.1 147.6 54.7 152.9 54.7C158.2 54.7 162.7 51.1 164.1 46.1L164.3 46.1L164.3 47.7" />
						<path id="Layer" class="shp7" d="M141.5 124L141.5 107.2" />
						<path id="Layer" class="shp7" d="M118.8 92.6L44 58.4L43.8 58.3" />
						<path id="Layer" class="shp7" d="M97.9 111.7L97.2 97.6L76 87.4L63.7 95.5" />
						<path id="Layer" class="shp7" d="M187.2 83.3C187.2 86.3 187.2 89.4 187.2 92.6L187.2 121.5L208 111.7L242.3 95.6L262 86.3L262.2 86.2L262.2 47.8L262.2 47.4L262 47.5L261.9 47.5L187.2 82.5" />
						<path id="Layer" class="shp7" d="M303.7 86.4L303.7 118.4C303.7 121.8 301.1 124.6 297.8 125C297.5 125 297.3 125 297 125L268.7 125C268.4 125 268.2 125 267.9 125C264.6 124.6 262 121.8 262 118.4L262 86.4L262 86.3L262 58.4L262 47.8L262 47.4L262 14.9" />
						<path id="Layer" class="shp7" d="M303.7 14.9L303.7 47.9" />
						<path id="Layer" class="shp7" d="M297.8 125C297.3 129.1 295.8 132.7 293.6 135.5C290.8 139 287.1 141.1 282.9 141.1C275.4 141.1 269.1 134.2 267.9 125.1" />
						<path id="Layer" class="shp7" d="M303.7 14.9C303.7 12.2 302.6 9.8 300.8 8C299 6.2 296.6 5.1 293.9 5.1L271.7 5.1C266.3 5.1 261.9 9.5 261.9 14.9L303.7 14.9L303.7 14.9Z" />
						<path id="Layer" class="shp7" d="M275.4 42.7C270.8 43.6 266.3 45.2 262.2 47.7C262.2 47.7 262.1 47.7 262.1 47.8L262 47.9L261.6 47.9" />
						<path id="Layer" class="shp7" d="M290.2 81.2C294.8 82.1 299.2 83.7 303.4 86.2L303.7 86.4L303.7 47.9L303.6 47.8C299.4 45.3 294.9 43.6 290.3 42.7" />
						<path id="Layer" class="shp7" d="M262 86.4C266.2 83.8 270.8 82.1 275.4 81.2" />
						<path id="Layer" class="shp7" d="M290.2 104.3C290.2 100.2 286.9 96.9 282.8 96.9C278.8 96.9 275.5 100.1 275.4 104.1C275.4 104.2 275.4 104.2 275.4 104.3C275.4 108.4 278.7 111.7 282.8 111.7C286.9 111.7 290.2 108.3 290.2 104.3Z" />
						<path id="Layer" class="shp7" d="M290.2 104.3L290.2 104.3L290.2 81.2L290.2 42.7L290.2 29.7C290.2 25.6 286.9 22.3 282.8 22.3L282.8 22.3C278.7 22.3 275.4 25.6 275.4 29.7L275.4 42.7L275.4 81.2L275.4 104.1L275.4 104.3L275.4 104.3" />
						<path id="Layer" class="shp7" d="M187.2 92.6L262 58.4L262.2 58.3" />
						<path id="Layer" class="shp7" d="M208.1 111.7L208.8 97.6L229.9 87.4L242.3 95.5" />
						<path id="Layer" class="shp7" d="M135.1 48.8L135.1 100.8C135.1 102.7 132.9 104.2 130.1 104.2C128.7 104.2 127.5 103.8 126.6 103.2C125.7 102.6 125.2 101.7 125.2 100.8L125.2 58" />
						<path id="Layer" class="shp7" d="M129.6 53.1C128.6 54 127.7 55 126.8 56C126.2 56.7 125.7 57.4 125.2 58.1C124.3 59.4 123.4 60.7 122.7 62.1C121.6 64.1 120.8 66.2 120.1 68.4C119.2 71.5 118.7 74.7 118.7 78L118.7 82.4L118.7 83.3L118.7 87.9L118.7 107.2C118.7 109.2 120 111 122 112.3C124.1 113.6 126.9 114.4 130.1 114.4C136.4 114.4 141.5 111.2 141.5 107.2L141.5 47.7" />
						<path id="Layer" class="shp7" d="M180.8 58.1L180.8 100.9C180.8 101.8 180.3 102.7 179.4 103.3C178.5 103.9 177.2 104.3 175.9 104.3C173.2 104.3 170.9 102.8 170.9 100.9L170.9 48.9" />
						<path id="Layer" class="shp7" d="M164.4 47.7L164.4 107.2C164.4 111.2 169.5 114.4 175.8 114.4C178.9 114.4 181.8 113.6 183.9 112.3C186 111 187.2 109.2 187.2 107.2L187.2 87.9L187.2 83.3L187.2 82.4L187.2 78C187.2 74.6 186.7 71.4 185.8 68.4C185.6 67.9 185.5 67.3 185.3 66.8C185.1 66.3 184.9 65.8 184.7 65.3C184.7 65.2 184.6 65.2 184.6 65.1C184.4 64.6 184.2 64.1 184 63.7L184 63.7C183.8 63.2 183.5 62.7 183.3 62.3L183.3 62.2C182.9 61.5 182.6 60.8 182.1 60.2C181.9 59.9 181.7 59.6 181.6 59.4C181.3 59 181.1 58.6 180.8 58.3L180.8 58.3C180.3 57.6 179.8 56.9 179.2 56.2C178.8 55.7 178.3 55.2 177.8 54.7C177.6 54.5 177.3 54.2 177.1 54C176.9 53.8 176.6 53.5 176.4 53.3" />
						<path id="Layer" class="shp7" d="M130.2 127.1L130.2 132.1C130.2 139.9 136.5 146.2 144.3 146.2L144.4 146.2C146.4 146.2 148 147.8 148 149.8L148 199.3C148.9 197.4 150.8 196.1 153 196.1C155.2 196.1 157.1 197.4 158 199.3C158 199.3 158.1 161.8 158.1 149.8C158.1 147.8 159.7 146.2 161.7 146.2C165.6 146.2 169.1 144.6 171.7 142.1C174.3 139.5 175.8 136 175.8 132.1L175.8 127.1" />
					</g>
				</g>
			</g>
		</g>
	</g>
</svg>