<svg version="1.2" baseProfile="tiny-ps" xmlns="http://www.w3.org/2000/svg" viewBox="0 0 262 307" width="262" height="307">
	<title>Spaceship_06_BLUE-svg</title>
	<style>
		tspan { white-space:pre }
		.shp0 { fill: #363636 } 
		.shp1 { fill: #292929 } 
		.shp2 { fill: #1c1c1c } 
		.shp3 { fill: #212121 } 
		.shp4 { fill: #91c9e8 } 
		.shp5 { fill: #3399cc } 
		.shp6 { fill: #404040 } 
		.shp7 { fill: none;stroke: #000000;stroke-width: 2 } 
	</style>
	<g id="Ideas">
	</g>
	<g id="Tools">
	</g>
	<g id="Spaceship6">
		<g id="Layer">
			<g id="Layer">
				<g id="XMLID_34_">
					<g id="Layer">
						<path id="Layer" class="shp0" d="M214.1 2.3L247 2.3L247 44L214.5 44L214.6 43.8L214.2 43.8C216.7 39.7 218.4 35.2 219.2 30.6L232.2 30.6C236.3 30.6 239.6 27.3 239.6 23.2L239.6 23.2C239.6 19.1 236.3 15.8 232.2 15.8L219.2 15.8C218.3 11.2 216.6 6.7 214.1 2.5L214.1 2.3Z" />
						<path id="Layer" class="shp1" d="M175.6 2.3L214.1 2.3L214.2 2.4C216.7 6.5 218.4 11.1 219.3 15.7L180.8 15.7C179.9 11.1 178.3 6.7 175.8 2.5L175.6 2.3Z" />
						<path id="Layer" class="shp0" d="M143.7 2.3L175.7 2.3L175.9 2.6C178.4 6.7 180.1 11.2 180.9 15.8L157.8 15.8C153.7 15.8 150.4 19.1 150.4 23.2C150.4 27.3 153.7 30.6 157.8 30.6C157.9 30.6 157.9 30.6 158 30.6L180.9 30.6C180 35.3 178.3 39.8 175.7 44L143.7 44C140.3 44 137.5 41.4 137.1 38.1C137.1 37.8 137.1 37.6 137.1 37.3L137.1 9C137.1 8.7 137.1 8.5 137.1 8.2C137.4 4.9 140.2 2.3 143.7 2.3Z" />
						<path id="Layer" class="shp2" d="M247.1 44L247.1 2.3C249.8 2.3 252.2 3.4 254 5.2C255.8 7 256.9 9.4 256.9 12.1L256.9 34.3C256.8 39.6 252.4 44 247.1 44Z" />
						<path id="Layer" class="shp3" d="M137 8.2L137 8.2C137 8.5 137 8.7 137 9L137 37.4C137 37.7 137 37.9 137 38.2L137 38.2C127.9 37.1 121 30.8 121 23.2C121 19 123.1 15.2 126.6 12.5C129.3 10.2 132.9 8.7 137 8.2Z" />
						<path id="Layer" class="shp4" d="M219.3 15.8L232.3 15.8C236.4 15.8 239.7 19.1 239.7 23.2L239.7 23.2C239.7 27.3 236.4 30.6 232.3 30.6L219.3 30.6L180.8 30.6L157.9 30.6C161.9 30.5 165.1 27.2 165.1 23.2C165.1 19.1 161.8 15.8 157.7 15.8L180.8 15.8L219.3 15.8Z" />
						<path id="Layer" class="shp5" d="M157.7 15.8C161.8 15.8 165.1 19.1 165.1 23.2C165.1 27.2 161.9 30.5 157.9 30.6C157.8 30.6 157.8 30.6 157.7 30.6C153.6 30.6 150.3 27.3 150.3 23.2C150.3 19.1 153.7 15.8 157.7 15.8Z" />
						<path id="Layer" class="shp1" d="M180.8 30.6L219.3 30.6C218.4 35.2 216.8 39.7 214.3 43.8L175.9 43.8L175.8 44L175.7 44C178.2 39.8 179.9 35.2 180.8 30.6Z" />
						<path id="Layer" class="shp3" d="M214.1 44L214.5 44L214.5 44.1L179.5 118.8L178.6 118.8C175.6 118.8 172.5 118.8 169.3 118.8L203.5 44L214.1 44Z" />
						<path id="Layer" class="shp1" d="M175.7 44L203.6 44L169.4 118.8L140.5 118.8L150.3 97.9L164.4 97.2L174.6 76L166.5 63.7L166.4 63.7L175.7 44Z" />
						<path id="Layer" class="shp4" d="M166.4 63.7L166.5 63.7L174.6 76L164.4 97.2L150.3 97.9L166.4 63.7Z" />
						<path id="Layer" fill-rule="evenodd" class="shp0" d="M59.3 78.7L73.2 78.7C83.6 78.7 96 87.1 96 97.5L96 104.2L55.6 104.2L61.2 98.2C62.1 97.3 62.6 96 62.6 94.7L62.6 88.2C62.6 86.9 62.1 85.7 61.2 84.7L56.6 79.8C57.3 79.2 58.3 78.7 59.3 78.7ZM83 88.6L69.6 88.6C68 88.6 66.7 89.9 66.7 91.5C66.7 93.1 68 94.4 69.6 94.4L83 94.4C84.6 94.4 86 93.1 86 91.5C85.9 89.9 84.6 88.6 83 88.6Z" />
						<path id="Layer" class="shp5" d="M56.7 79.9L61.3 84.8C62.2 85.7 62.7 87 62.7 88.3L62.7 94.8C62.7 96.1 62.2 97.4 61.3 98.3L55.7 104.3L55.7 100.6L55.7 93.1L55.7 90.1L55.7 82.6L55.7 82.5C55.6 81.4 56 80.5 56.7 79.9Z" />
						<path id="Layer" class="shp0" d="M31.7 90L31.7 82.5L55.6 82.5L55.6 90L31.7 90Z" />
						<path id="Layer" class="shp2" d="M29.9 82.5L31.7 82.5L31.7 90L29.9 90C29 89.2 28.6 88.7 27.7 87.8L27.7 84.6C28.6 83.8 29 83.3 29.9 82.5Z" />
						<path id="Layer" class="shp5" d="M69.6 88.6L83 88.6C84.6 88.6 86 89.9 86 91.5L86 91.5C86 93.1 84.7 94.4 83 94.4L69.6 94.4C68 94.4 66.7 93.1 66.7 91.5L66.7 91.5C66.6 89.9 68 88.6 69.6 88.6Z" />
						<path id="Layer" class="shp0" d="M31.7 100.6L31.7 93.1L55.6 93.1L55.6 100.6L31.7 100.6Z" />
						<path id="Layer" class="shp2" d="M29.9 93L31.7 93L31.7 100.5L29.9 100.5C29 99.7 28.6 99.2 27.7 98.3L27.7 95.1C28.6 94.4 29 93.9 29.9 93Z" />
						<path id="Layer" class="shp0" d="M47.9 104.5L95.6 104.5C104.7 104.5 113.1 107.3 120.1 112.2L120 112.3C115.4 113.8 111.2 116.1 107.5 118.9C104.6 121.1 100.9 122.1 97.3 121.9C96.9 121.9 96.5 121.9 96.2 121.9L67.7 121.9C63.3 121.9 59.1 123.4 55.7 126C55.5 126.2 55.3 126.4 55 126.5L55 126.5C55 126.4 54.9 126.3 54.8 126.2C54.2 125.3 53.4 124.5 52.3 124L49.9 122.9C47.1 121.6 44 122.8 42.6 125.2C37.6 119.2 30.9 114.7 23.3 112.2C30.3 107.4 38.8 104.5 47.9 104.5Z" />
						<path id="Layer" fill-rule="evenodd" class="shp6" d="M120 112.3L120.1 112.2C122.8 114.1 125.3 116.3 127.5 118.8C130.3 121.9 132.6 125.4 134.3 129.2C134.5 129.5 134.6 129.9 134.8 130.2L129.8 130.2C122 130.2 115.7 136.5 115.7 144.3L115.7 144.4C115.7 146.4 114.1 148 112.1 148L55.6 148L55.6 129.2C55.6 128.3 55.4 127.3 54.9 126.5C55.1 126.3 55.3 126.1 55.6 126C59 123.3 63.2 121.9 67.6 121.9C68 121.9 96.9 121.9 97.2 121.9C100.9 122.1 104.5 121.1 107.4 118.9C111.2 116 115.5 113.8 120 112.3ZM99.9 133.9L70.4 133.9C69.8 133.9 69.2 134.2 68.8 134.6C68.4 135 68.1 135.6 68.1 136.2C68.1 137.5 69.1 138.5 70.4 138.5L99.9 138.5C101.2 138.5 102.2 137.5 102.2 136.2C102.2 134.9 101.2 133.9 99.9 133.9Z" />
						<path id="Layer" class="shp0" d="M23.3 112.3C30.9 114.8 37.6 119.3 42.6 125.3C42.2 126.1 41.9 126.9 41.9 127.9L41.8 131.7C39.7 131.7 37.8 132.6 36.3 134.1L28.2 142.8L27 142.8C22.3 142.8 18.5 146.6 18.5 151.2L18.5 154.8C18.5 159.5 22.3 163.2 27 163.2L28.2 163.2L36.3 171.8C37.8 173.4 39.7 174.2 41.8 174.2L41.8 174.3L41.9 178.1C41.9 179.1 42.2 179.9 42.6 180.7C37.5 186.6 30.9 191.2 23.3 193.7C12.3 186 5.1 173.2 5.1 158.7L5.1 147.2C5.2 132.8 12.4 120 23.3 112.3Z" />
						<path id="Layer" class="shp1" d="M140.5 118.8L169.4 118.8L174.1 118.8L154.8 118.8C152.8 118.8 151 120.1 149.7 122.1C148.4 124.2 147.6 127 147.6 130.2C147.6 136.5 150.8 141.6 154.8 141.6L138 141.6C137.5 137.6 136.4 133.8 134.8 130.2C134.6 129.8 134.5 129.5 134.3 129.2C132.5 125.4 130.2 121.9 127.5 118.8L140.5 118.8L140.5 118.8Z" />
						<path id="Layer" class="shp1" d="M174.1 118.8L178.7 118.8L179.6 118.8L184 118.8C187.4 118.8 190.6 119.3 193.6 120.2C195.8 120.8 197.9 121.7 199.9 122.8C201.3 123.5 202.6 124.4 203.9 125.3L161.1 125.3C160.2 125.3 159.3 125.9 158.7 126.7C158.1 127.6 157.7 128.9 157.7 130.2C157.7 132.9 159.2 135.2 161.1 135.2L213.1 135.2C213.5 135.9 213.9 136.6 214.3 137.3C215 138.7 215.7 140.1 216.2 141.6C216.2 141.7 216.3 141.7 216.3 141.8C216.2 141.8 216.1 141.9 216 141.9L216 141.8L216 141.6L214.4 141.6L154.9 141.6C150.9 141.6 147.7 136.5 147.7 130.2C147.7 127.1 148.5 124.2 149.8 122.1C151.1 120 152.9 118.8 154.9 118.8L174.1 118.8Z" />
						<path id="Layer" class="shp6" d="M42.6 125.3C44 122.9 47.1 121.7 49.9 123L52.3 124.1C53.3 124.6 54.2 125.4 54.8 126.3C54.9 126.4 54.9 126.5 55 126.6C55.4 127.4 55.7 128.3 55.7 129.3L55.7 148L55.7 158L55.7 176.8C55.7 177.7 55.5 178.7 55 179.5C54.4 180.6 53.5 181.4 52.4 182L50 183.1C47.2 184.4 44.1 183.2 42.7 180.8C42.3 180 42 179.2 42 178.2L41.9 174.4L41.9 174.3C43.8 174.3 45.5 173.5 46.7 172.3C47.9 171.1 48.7 169.4 48.7 167.5L48.7 163.3L48.7 163.2L48.7 142.8L48.7 138.5C48.7 136.6 47.9 134.9 46.7 133.7C45.5 132.5 43.8 131.7 41.9 131.7L42 127.9C41.9 126.9 42.2 126 42.6 125.3Z" />
						<path id="Layer" class="shp5" d="M161.1 125.2L204 125.2C204.7 125.7 205.4 126.2 206.1 126.8C207.1 127.7 208.1 128.6 209 129.6C210 130.7 211 131.9 211.9 133.1C212.4 133.7 212.8 134.4 213.2 135.1L161.2 135.1C159.3 135.1 157.8 132.9 157.8 130.1C157.8 128.7 158.2 127.5 158.8 126.6C159.3 125.8 160.2 125.2 161.1 125.2Z" />
						<path id="Layer" class="shp0" d="M129.9 130.2L134.9 130.2C136.5 133.8 137.5 137.6 138.1 141.6C138.3 143.5 138.5 145.4 138.5 147.3L138.5 158.8C138.5 160.7 138.4 162.6 138.1 164.5C137.6 168.5 136.5 172.3 134.9 175.9L129.9 175.9C126 175.9 122.5 174.3 119.9 171.8C117.3 169.2 115.8 165.7 115.8 161.8C115.8 159.8 114.2 158.2 112.2 158.2C100.2 158.2 62.7 158.1 62.7 158.1C64.6 157.2 65.9 155.3 65.9 153.1C65.9 150.9 64.6 149 62.7 148.1L112.2 148.1C114.2 148.1 115.8 146.5 115.8 144.5L115.8 144.4C115.8 136.5 122.1 130.2 129.9 130.2Z" />
						<path id="Layer" class="shp5" d="M36.3 134.1C37.8 132.5 39.7 131.7 41.8 131.7C43.7 131.7 45.4 132.5 46.6 133.7C47.8 134.9 48.6 136.6 48.6 138.5L48.6 142.8L28.2 142.8L36.3 134.1Z" />
						<path id="Layer" class="shp4" d="M70.4 133.9L99.9 133.9C101.2 133.9 102.2 134.9 102.2 136.2C102.2 137.5 101.2 138.5 99.9 138.5L70.4 138.5C69.1 138.5 68.1 137.5 68.1 136.2C68.1 135.6 68.4 135 68.8 134.6C69.2 134.1 69.8 133.9 70.4 133.9Z" />
						<path id="Layer" class="shp3" d="M214.3 141.5L215.9 141.5L215.9 141.7C210.9 143.1 207.3 147.6 207.3 152.9C207.3 158.2 210.9 162.7 215.9 164.1L215.9 164.3L214.3 164.3L154.8 164.3L138 164.3C138.2 162.4 138.4 160.5 138.4 158.6L138.4 147.1C138.4 145.2 138.3 143.3 138 141.4L154.7 141.4L214.3 141.4L214.3 141.5Z" />
						<path id="Layer" class="shp1" d="M215.9 141.8L215.9 141.9C211.2 143.4 207.9 147.8 207.9 153C207.9 158.3 211.4 162.8 216.3 164.2C216.3 164.3 216.3 164.3 216.2 164.4C215.4 166.7 214.4 168.8 213.1 170.8L161.1 170.8C159.2 170.8 157.7 173 157.7 175.8C157.7 177.2 158.1 178.4 158.7 179.3C159.3 180.2 160.2 180.7 161.1 180.7L203.9 180.7C203.5 181 203.1 181.2 202.8 181.5C202.5 181.7 202.2 181.9 202 182C201.3 182.4 200.7 182.8 200 183.2C200 183.2 200 183.2 199.9 183.2C199.4 183.5 198.9 183.7 198.5 183.9L198.5 183.9C198 184.1 197.6 184.3 197.1 184.5C197 184.5 197 184.6 196.9 184.6C196.4 184.8 195.9 185 195.4 185.2C194.9 185.4 194.3 185.6 193.8 185.7C190.7 186.6 187.5 187.1 184.2 187.1L179.8 187.1L178.9 187.1L174.3 187.1L155 187.1C153 187.1 151.2 185.8 149.9 183.8C148.6 181.7 147.8 178.9 147.8 175.7C147.8 169.4 151 164.3 155 164.3L214.5 164.3L216.1 164.3L216.1 164.1C211.1 162.7 207.5 158.2 207.5 152.9C207.5 147.6 211 143.2 215.9 141.8Z" />
						<path id="Layer" class="shp4" d="M28.2 163.2L27 163.2C22.3 163.2 18.5 159.4 18.5 154.8L18.5 151.2C18.5 146.5 22.3 142.8 27 142.8L28.2 142.8L48.6 142.8L48.6 163.2L48.6 163.3L28.2 163.3L28.2 163.2Z" />
						<path id="Layer" class="shp4" d="M55.6 148L62.6 148C64.5 148.9 65.8 150.8 65.8 153C65.8 155.2 64.5 157.1 62.6 158L55.6 158L55.6 148Z" />
						<path id="Layer" fill-rule="evenodd" class="shp6" d="M62.6 158C62.6 158 100.1 158.1 112.1 158.1C114.1 158.1 115.7 159.7 115.7 161.7C115.7 165.6 117.3 169.1 119.8 171.7C122.4 174.3 125.9 175.8 129.8 175.8L134.8 175.8C134.6 176.2 134.5 176.5 134.3 176.9C132.5 180.7 130.2 184.1 127.5 187.2C125.3 189.7 122.8 191.9 120.1 193.8L120 193.7C115.4 192.2 111.2 189.9 107.5 187.1C104.6 184.9 100.9 183.9 97.3 184.1C96.9 184.1 96.5 184.1 96.2 184.1L67.7 184.1C63.3 184.1 59.1 182.6 55.7 180C55.5 179.8 55.3 179.7 55 179.5C55.4 178.7 55.7 177.8 55.7 176.8L55.7 158L62.6 158ZM99.9 167.5L70.4 167.5C69.1 167.5 68.1 168.5 68.1 169.8C68.1 170.4 68.4 171 68.8 171.4C69.2 171.8 69.8 172.1 70.4 172.1L99.9 172.1C101.2 172.1 102.2 171.1 102.2 169.8C102.2 168.6 101.2 167.5 99.9 167.5Z" />
						<path id="Layer" class="shp5" d="M28.2 163.2L48.6 163.2L48.6 167.4C48.6 169.3 47.8 171 46.6 172.2C45.4 173.4 43.7 174.2 41.8 174.2C39.7 174.2 37.8 173.3 36.3 171.8L28.2 163.2Z" />
						<path id="Layer" class="shp1" d="M138 164.4L154.7 164.4C150.7 164.4 147.5 169.5 147.5 175.8C147.5 178.9 148.3 181.8 149.6 183.9C150.9 186 152.7 187.2 154.7 187.2L174 187.2L169.3 187.2L140.4 187.2L127.5 187.2C130.2 184.1 132.5 180.7 134.3 176.9C134.5 176.5 134.6 176.2 134.8 175.8C136.4 172.3 137.5 168.4 138 164.4Z" />
						<path id="Layer" class="shp4" d="M70.4 167.5L99.9 167.5C101.2 167.5 102.2 168.5 102.2 169.8C102.2 171.1 101.2 172.1 99.9 172.1L70.4 172.1C69.8 172.1 69.2 171.8 68.8 171.4C68.4 171 68.1 170.4 68.1 169.8C68.1 168.6 69.2 167.5 70.4 167.5Z" />
						<path id="Layer" class="shp5" d="M161.1 170.9L213.1 170.9C211.9 172.9 210.5 174.7 208.9 176.4C208.7 176.7 208.4 176.9 208.2 177.1C208 177.3 207.7 177.6 207.5 177.8C207 178.3 206.5 178.7 206 179.2C205.3 179.8 204.6 180.3 203.9 180.8L203.9 180.8L161.1 180.8C160.2 180.8 159.3 180.3 158.7 179.4C158.1 178.5 157.7 177.2 157.7 175.9C157.7 173.1 159.2 170.9 161.1 170.9Z" />
						<path id="Layer" class="shp0" d="M55.6 180C59 182.7 63.2 184.1 67.6 184.1L96.1 184.1C96.5 184.1 96.9 184.1 97.2 184.1C100.9 183.9 104.5 184.9 107.4 187.1C111.1 190 115.4 192.2 119.9 193.7L120 193.8C113.1 198.7 104.6 201.5 95.5 201.5L47.8 201.5C38.6 201.5 30.1 198.6 23.2 193.7C30.8 191.2 37.4 186.7 42.5 180.7C43.9 183.1 47 184.3 49.8 183L52.2 181.9C53.3 181.4 54.2 180.5 54.8 179.4C55.2 179.7 55.4 179.9 55.6 180Z" />
						<path id="Layer" class="shp3" d="M214.1 262L203.5 262L169.3 187.2C172.5 187.2 175.6 187.2 178.6 187.2L179.5 187.2L214.5 261.9L214.5 262L214.1 262L214.1 262Z" />
						<path id="Layer" class="shp1" d="M140.5 187.2L169.4 187.2L203.6 262L175.7 262L166.4 242.3L166.5 242.3L174.6 229.9L164.4 208.8L150.3 208.1L140.5 187.2Z" />
						<path id="Layer" fill-rule="evenodd" class="shp0" d="M55.6 201.7L96 201.7L96 204.4C96 217 85.7 227.2 73.2 227.2L59.3 227.2C58.3 227.2 57.3 226.8 56.7 226.1L61.3 221.2C62.2 220.2 62.7 219 62.7 217.7L62.7 211.2C62.7 209.9 62.2 208.6 61.3 207.7L55.6 201.7ZM83 211.6L69.6 211.6C68 211.6 66.7 212.9 66.7 214.5C66.7 216.1 68 217.4 69.6 217.4L83 217.4C84.6 217.4 86 216.1 86 214.5C85.9 212.9 84.6 211.6 83 211.6Z" />
						<path id="Layer" class="shp5" d="M55.6 201.7L61.2 207.7C62.1 208.6 62.6 209.9 62.6 211.2L62.6 217.7C62.6 219 62.1 220.2 61.2 221.2L56.6 226.1C55.9 225.4 55.5 224.5 55.5 223.5L55.5 223.4L55.5 215.9L55.5 212.9L55.5 205.4L55.5 201.7L55.6 201.7Z" />
						<path id="Layer" class="shp0" d="M31.7 212.9L31.7 205.4L55.6 205.4L55.6 212.9L31.7 212.9Z" />
						<path id="Layer" class="shp2" d="M29.9 205.4L31.7 205.4L31.7 212.9L29.9 212.9C29 212.1 28.6 211.6 27.7 210.7L27.7 207.5C28.6 206.7 29 206.3 29.9 205.4Z" />
						<path id="Layer" class="shp4" d="M150.3 208.1L164.4 208.8L174.6 229.9L166.5 242.3L166.4 242.3L150.3 208.1Z" />
						<path id="Layer" class="shp5" d="M69.6 211.6L83 211.6C84.6 211.6 86 212.9 86 214.5L86 214.5C86 216.1 84.7 217.4 83 217.4L69.6 217.4C68 217.4 66.7 216.1 66.7 214.5L66.7 214.5C66.6 212.9 68 211.6 69.6 211.6Z" />
						<path id="Layer" class="shp0" d="M31.7 223.5L31.7 216L55.6 216L55.6 223.5L31.7 223.5Z" />
						<path id="Layer" class="shp2" d="M29.9 216L31.7 216L31.7 223.5L29.9 223.5C29 222.7 28.6 222.2 27.7 221.3L27.7 218.1C28.6 217.3 29 216.8 29.9 216Z" />
						<path id="Layer" class="shp0" d="M214.6 262L247.1 262L247.1 303.7L214.2 303.7L214.3 303.6C216.8 299.4 218.5 294.9 219.4 290.3L232.4 290.3C236.5 290.3 239.8 287 239.8 282.9L239.8 282.9C239.8 278.8 236.5 275.5 232.4 275.5L219.4 275.5C218.5 270.9 216.9 266.4 214.4 262.3L214.8 262.3L214.6 262Z" />
						<path id="Layer" class="shp1" d="M175.6 262L175.7 262L175.8 262.2L214.2 262.2C216.7 266.3 218.4 270.8 219.2 275.4L180.7 275.4C179.9 270.7 178.2 266.2 175.6 262Z" />
						<path id="Layer" class="shp0" d="M143.7 262L175.7 262C178.3 266.2 180 270.8 180.9 275.4L158 275.4C157.9 275.4 157.9 275.4 157.8 275.4C153.7 275.4 150.4 278.7 150.4 282.8C150.4 286.9 153.7 290.2 157.8 290.2L180.9 290.2C180 294.8 178.4 299.2 175.9 303.4L175.7 303.7L143.7 303.7C140.3 303.7 137.5 301.1 137.1 297.8C137.1 297.5 137.1 297.3 137.1 297L137.1 268.7C137.1 268.4 137.1 268.2 137.1 267.9C137.4 264.6 140.2 262 143.7 262Z" />
						<path id="Layer" class="shp2" d="M247.1 303.7L247.1 262C252.5 262 256.9 266.4 256.9 271.8L256.9 294C256.9 296.7 255.8 299.1 254 300.9C252.2 302.6 249.8 303.7 247.1 303.7Z" />
						<path id="Layer" class="shp3" d="M137 267.9L137 267.9C137 268.2 137 268.4 137 268.7L137 297C137 297.3 137 297.5 137 297.8L137 297.8C132.9 297.3 129.3 295.8 126.5 293.6C123 290.8 120.9 287.1 120.9 282.9C121 275.3 127.9 269 137 267.9Z" />
						<path id="Layer" class="shp5" d="M157.9 275.4C161.9 275.5 165.1 278.8 165.1 282.8C165.1 286.9 161.8 290.2 157.7 290.2C153.6 290.2 150.3 286.9 150.3 282.8C150.3 278.7 153.6 275.4 157.7 275.4C157.8 275.4 157.9 275.4 157.9 275.4Z" />
						<path id="Layer" class="shp4" d="M219.3 275.4L232.3 275.4C236.4 275.4 239.7 278.7 239.7 282.8L239.7 282.8C239.7 286.9 236.4 290.2 232.3 290.2L219.3 290.2L180.8 290.2L157.7 290.2C161.8 290.2 165.1 286.9 165.1 282.8C165.1 278.8 161.9 275.5 157.9 275.4L180.8 275.4L219.3 275.4Z" />
						<path id="Layer" class="shp1" d="M180.8 290.2L219.3 290.2C218.4 294.8 216.7 299.3 214.2 303.5L214.1 303.6L175.6 303.6L175.8 303.3C178.3 299.3 180 294.8 180.8 290.2Z" />
					</g>
					<g id="Layer">
						<path id="Layer" class="shp7" d="M23.3 112.3C12.3 120 5.1 132.8 5.1 147.3L5.1 158.8C5.1 173.2 12.3 186 23.3 193.8C30.3 198.7 38.7 201.6 47.9 201.6L95.6 201.6C104.7 201.6 113.1 198.8 120.1 193.9C122.8 192 125.3 189.8 127.5 187.3C130.2 184.2 132.5 180.8 134.3 177C134.5 176.6 134.6 176.3 134.8 175.9C136.4 172.3 137.5 168.5 138 164.5C138.2 162.6 138.4 160.7 138.4 158.8L138.4 147.3C138.4 145.4 138.3 143.5 138 141.6C137.5 137.6 136.4 133.8 134.8 130.2C134.6 129.8 134.5 129.5 134.3 129.2C132.5 125.4 130.2 121.9 127.5 118.8C125.3 116.3 122.8 114.1 120.1 112.2C113.2 107.3 104.7 104.5 95.6 104.5L47.9 104.5C38.8 104.5 30.3 107.4 23.3 112.3Z" />
						<path id="Layer" class="shp7" d="M140.5 118.8L127.6 118.8" />
						<path id="Layer" class="shp7" d="M174.1 118.8L169.4 118.8" />
						<path id="Layer" class="shp7" d="M208.9 176.4C210.5 174.7 211.9 172.9 213.1 170.9C214.3 168.9 215.4 166.7 216.2 164.5C216.2 164.4 216.3 164.4 216.3 164.3C211.4 162.9 207.9 158.4 207.9 153.1C207.9 147.9 211.3 143.5 215.9 142C216 141.9 216.1 141.9 216.2 141.9C216.2 141.8 216.2 141.8 216.1 141.7C215.6 140.2 214.9 138.7 214.2 137.4C213.8 136.7 213.4 136 213 135.3C212.6 134.6 212.1 133.9 211.7 133.3C210.8 132.1 209.8 130.9 208.8 129.8" />
						<path id="Layer" class="shp7" d="M198.4 184C198.9 183.8 199.4 183.5 199.8 183.3" />
						<path id="Layer" class="shp7" d="M197 184.6C197.5 184.4 198 184.2 198.4 184" />
						<path id="Layer" class="shp7" d="M195.3 185.3C195.8 185.1 196.3 184.9 196.8 184.7" />
						<path id="Layer" class="shp7" d="M169.4 187.2L174.1 187.2" />
						<path id="Layer" class="shp7" d="M127.6 187.2L140.5 187.2" />
						<path id="Layer" class="shp7" d="M178.7 118.8C175.7 118.8 172.6 118.8 169.4 118.8L140.5 118.8L150.3 98L166.4 63.7L175.7 44L175.8 43.8L214.2 43.8L214.6 43.8L214.5 44L214.5 44.1L179.5 118.8" />
						<path id="Layer" class="shp7" d="M214.1 2.3L247.1 2.3" />
						<path id="Layer" class="shp7" d="M247.1 44L214.6 44L214.2 44L203.6 44L175.7 44L175.6 44L143.6 44C140.2 44 137.4 41.4 137 38.1C137 37.8 137 37.6 137 37.3L137 9C137 8.7 137 8.5 137 8.2C137.4 4.9 140.2 2.3 143.6 2.3L175.6 2.3" />
						<path id="Layer" class="shp7" d="M137 38.1C127.9 37 121 30.7 121 23.1C121 18.9 123.1 15.1 126.6 12.4C129.4 10.2 133 8.7 137.1 8.2" />
						<path id="Layer" class="shp7" d="M247.1 2.3C249.8 2.3 252.2 3.4 254 5.2C255.8 7 256.9 9.4 256.9 12.1L256.9 34.3C256.9 39.7 252.5 44.1 247.1 44.1L247.1 2.3L247.1 2.3Z" />
						<path id="Layer" class="shp7" d="M214.1 44.4L214.1 44L214.2 43.9C214.2 43.9 214.2 43.8 214.3 43.8C216.8 39.7 218.5 35.2 219.3 30.6" />
						<path id="Layer" class="shp7" d="M219.3 15.8C218.4 11.2 216.7 6.7 214.2 2.5L214.1 2.4L175.6 2.4L175.8 2.7C178.3 6.8 180 11.3 180.8 15.9" />
						<path id="Layer" class="shp7" d="M180.8 30.6C179.9 35.3 178.2 39.8 175.6 44" />
						<path id="Layer" class="shp7" d="M157.7 15.8C161.8 15.8 165.1 19.1 165.1 23.2C165.1 27.2 161.9 30.5 157.9 30.6C157.8 30.6 157.8 30.6 157.7 30.6C153.6 30.6 150.3 27.3 150.3 23.2C150.3 19.1 153.7 15.8 157.7 15.8Z" />
						<path id="Layer" class="shp7" d="M157.7 30.5L157.7 30.5L157.9 30.5L180.8 30.5L219.3 30.5L232.3 30.5C236.4 30.5 239.7 27.2 239.7 23.1L239.7 23.1C239.7 19 236.4 15.7 232.3 15.7L219.3 15.7L180.8 15.7L157.7 15.7L157.7 15.7" />
						<path id="Layer" class="shp7" d="M48.6 163.2L28.2 163.2L27 163.2C22.3 163.2 18.5 159.4 18.5 154.8L18.5 151.2C18.5 146.5 22.3 142.8 27 142.8L28.2 142.8L48.6 142.8L48.6 163.2Z" />
						<path id="Layer" class="shp7" d="M28.1 142.8L36.2 134.1C37.7 132.5 39.6 131.7 41.7 131.7C43.6 131.7 45.3 132.5 46.5 133.7C47.7 134.9 48.5 136.6 48.5 138.5L48.5 142.8" />
						<path id="Layer" class="shp7" d="M28.1 163.2L28.1 163.2L36.2 171.9C37.7 173.5 39.6 174.3 41.7 174.3C43.6 174.3 45.3 173.5 46.5 172.3C47.7 171.1 48.5 169.4 48.5 167.5L48.5 163.3L48.5 163.2" />
						<path id="Layer" class="shp7" d="M41.8 131.7L41.9 127.9C41.9 126.9 42.2 126.1 42.6 125.3C44 122.9 47.1 121.7 49.9 123L52.3 124.1C53.3 124.6 54.2 125.4 54.8 126.3C54.9 126.4 54.9 126.5 55 126.6C55.4 127.4 55.7 128.3 55.7 129.3" />
						<path id="Layer" class="shp7" d="M55.6 180L55.6 180.1" />
						<path id="Layer" class="shp7" d="M55.6 148L55.6 129.2" />
						<path id="Layer" class="shp7" d="M41.8 174.4L41.9 178.2C41.9 179.2 42.2 180 42.6 180.8C44 183.2 47.1 184.4 49.9 183.1L52.3 182C53.4 181.5 54.3 180.6 54.9 179.5C55.3 178.7 55.6 177.8 55.6 176.8L55.6 158" />
						<path id="Layer" class="shp7" d="M62.6 158L55.6 158L55.6 148L62.6 148" />
						<path id="Layer" class="shp7" d="M102.2 136.2C102.2 137.5 101.2 138.5 99.9 138.5L70.4 138.5C69.1 138.5 68.1 137.5 68.1 136.2C68.1 135.6 68.4 135 68.8 134.6C69.2 134.2 69.8 133.9 70.4 133.9L99.9 133.9C101.2 133.9 102.2 134.9 102.2 136.2Z" />
						<path id="Layer" class="shp7" d="M102.2 169.8C102.2 168.5 101.2 167.5 99.9 167.5L70.4 167.5C69.1 167.5 68.1 168.5 68.1 169.8C68.1 170.4 68.4 171 68.8 171.4C69.2 171.8 69.8 172.1 70.4 172.1L99.9 172.1C101.2 172.1 102.2 171.1 102.2 169.8Z" />
						<path id="Layer" class="shp7" d="M42.6 125.3C37.6 119.3 30.9 114.8 23.3 112.3" />
						<path id="Layer" class="shp7" d="M23.3 193.7C30.9 191.2 37.5 186.7 42.6 180.7" />
						<path id="Layer" class="shp7" d="M120 193.7C115.4 192.2 111.2 189.9 107.5 187.1C104.6 184.9 100.9 183.9 97.3 184.1C96.9 184.1 96.5 184.1 96.2 184.1L67.7 184.1C63.3 184.1 59.1 182.6 55.7 180C55.5 179.8 55.3 179.7 55 179.5" />
						<path id="Layer" class="shp7" d="M55 126.5C55.2 126.3 55.4 126.1 55.7 126C59.1 123.3 63.3 121.9 67.7 121.9L96.2 121.9C96.6 121.9 97 121.9 97.3 121.9C101 122.1 104.6 121.1 107.5 118.9C111.2 116.1 115.5 113.8 120 112.3" />
						<path id="Layer" class="shp7" d="M55.6 82.5L55.6 82.5C55.6 81.4 56 80.5 56.7 79.9C57.4 79.2 58.3 78.8 59.3 78.8L73.2 78.8C83.6 78.8 96 87.2 96 97.6L96 104.3L55.6 104.3L55.6 100.6" />
						<path id="Layer" class="shp7" d="M55.6 93L55.6 90" />
						<path id="Layer" class="shp7" d="M31.7 93L55.6 93L55.6 100.6L31.7 100.6" />
						<path id="Layer" class="shp7" d="M31.7 93L29.9 93C29 93.9 28.6 94.3 27.7 95.2L27.7 98.4C28.5 99.2 29 99.7 29.9 100.6L31.7 100.6L31.7 93Z" />
						<path id="Layer" class="shp7" d="M31.7 82.5L55.6 82.5L55.6 90L31.7 90" />
						<path id="Layer" class="shp7" d="M31.7 82.5L29.9 82.5C29 83.3 28.6 83.8 27.7 84.7L27.7 87.9C28.5 88.7 29 89.2 29.9 90.1L31.7 90.1L31.7 82.5Z" />
						<path id="Layer" class="shp7" d="M55.6 104.3L61.2 98.3C62.1 97.4 62.6 96.1 62.6 94.8L62.6 88.3C62.6 87 62.1 85.8 61.2 84.8L56.6 79.9" />
						<path id="Layer" class="shp7" d="M85.9 91.5L85.9 91.5C85.9 93.1 84.6 94.5 82.9 94.5L69.5 94.5C67.9 94.5 66.6 93.2 66.6 91.6L66.6 91.6C66.6 90 67.9 88.7 69.5 88.7L83 88.7C84.6 88.6 85.9 89.9 85.9 91.5Z" />
						<path id="Layer" class="shp7" d="M55.6 223.5L55.6 223.5C55.6 224.6 56 225.5 56.7 226.1C57.4 226.8 58.3 227.2 59.3 227.2L73.2 227.2C85.8 227.2 96 216.9 96 204.4L96 201.7L55.6 201.7L55.6 205.4" />
						<path id="Layer" class="shp7" d="M55.6 212.9L55.6 216" />
						<path id="Layer" class="shp7" d="M31.7 212.9L55.6 212.9L55.6 205.4L31.7 205.4" />
						<path id="Layer" class="shp7" d="M31.7 212.9L29.9 212.9C29 212.1 28.6 211.6 27.7 210.7L27.7 207.5C28.5 206.6 29 206.2 29.9 205.3L31.7 205.3L31.7 212.9Z" />
						<path id="Layer" class="shp7" d="M31.7 223.5L55.6 223.5L55.6 216L31.7 216" />
						<path id="Layer" class="shp7" d="M31.7 223.5L29.9 223.5C29 222.7 28.6 222.2 27.7 221.3L27.7 218.1C28.5 217.3 29 216.8 29.9 215.9L31.7 215.9L31.7 223.5Z" />
						<path id="Layer" class="shp7" d="M55.6 201.7L61.2 207.7C62.1 208.6 62.6 209.9 62.6 211.2L62.6 217.7C62.6 219 62.1 220.2 61.2 221.2L56.6 226.1" />
						<path id="Layer" class="shp7" d="M85.9 214.5L85.9 214.5C85.9 212.9 84.6 211.6 82.9 211.6L69.5 211.6C67.9 211.6 66.6 212.9 66.6 214.5L66.6 214.5C66.6 216.1 67.9 217.4 69.5 217.4L83 217.4C84.6 217.4 85.9 216.1 85.9 214.5Z" />
						<path id="Layer" class="shp7" d="M154.8 164.4L138 164.4" />
						<path id="Layer" class="shp7" d="M214.3 141.5L215.9 141.5L215.9 141.7C210.9 143.1 207.3 147.6 207.3 152.9C207.3 158.2 210.9 162.7 215.9 164.1L215.9 164.3L214.3 164.3" />
						<path id="Layer" class="shp7" d="M138 141.5L154.8 141.5" />
						<path id="Layer" class="shp7" d="M169.4 118.8L203.6 44L203.7 43.8" />
						<path id="Layer" class="shp7" d="M150.3 97.9L164.4 97.2L174.6 76L166.5 63.7" />
						<path id="Layer" class="shp7" d="M178.7 187.2C175.7 187.2 172.6 187.2 169.4 187.2L140.5 187.2L150.3 208L166.4 242.3L175.7 262L175.8 262.2L214.2 262.2L214.6 262.2L214.5 262L214.5 261.9L179.5 187.2" />
						<path id="Layer" class="shp7" d="M175.6 303.7L143.6 303.7C140.2 303.7 137.4 301.1 137 297.8C137 297.5 137 297.3 137 297L137 268.7C137 268.4 137 268.2 137 267.9C137.4 264.6 140.2 262 143.6 262L175.6 262L175.7 262L203.6 262L214.2 262L214.6 262L247.1 262" />
						<path id="Layer" class="shp7" d="M247.1 303.7L214.1 303.7" />
						<path id="Layer" class="shp7" d="M137 297.8C132.9 297.3 129.3 295.8 126.5 293.6C123 290.8 120.9 287.1 120.9 282.9C120.9 275.4 127.8 269.1 136.9 267.9" />
						<path id="Layer" class="shp7" d="M247.1 303.7C249.8 303.7 252.2 302.6 254 300.8C255.8 299 256.9 296.6 256.9 293.9L256.9 271.7C256.9 266.3 252.5 261.9 247.1 261.9L247.1 303.7L247.1 303.7Z" />
						<path id="Layer" class="shp7" d="M219.3 275.4C218.4 270.8 216.8 266.3 214.3 262.2C214.3 262.2 214.3 262.1 214.2 262.1L214.1 262L214.1 261.6" />
						<path id="Layer" class="shp7" d="M180.8 290.2C179.9 294.8 178.3 299.2 175.8 303.4L175.6 303.7L214.1 303.7L214.2 303.6C216.7 299.4 218.4 294.9 219.3 290.3" />
						<path id="Layer" class="shp7" d="M175.6 262C178.2 266.2 179.9 270.8 180.8 275.4" />
						<path id="Layer" class="shp7" d="M157.7 290.2C161.8 290.2 165.1 286.9 165.1 282.8C165.1 278.8 161.9 275.5 157.9 275.4C157.8 275.4 157.8 275.4 157.7 275.4C153.6 275.4 150.3 278.7 150.3 282.8C150.3 286.9 153.7 290.2 157.7 290.2Z" />
						<path id="Layer" class="shp7" d="M157.7 290.2L157.7 290.2L180.8 290.2L219.3 290.2L232.3 290.2C236.4 290.2 239.7 286.9 239.7 282.8L239.7 282.8C239.7 278.7 236.4 275.4 232.3 275.4L219.3 275.4L180.8 275.4L157.9 275.4L157.7 275.4L157.7 275.4" />
						<path id="Layer" class="shp7" d="M169.4 187.2L203.6 262L203.7 262.2" />
						<path id="Layer" class="shp7" d="M150.3 208.1L164.4 208.8L174.6 229.9L166.5 242.3" />
						<path id="Layer" class="shp7" d="M213.2 135.1L161.2 135.1C159.3 135.1 157.8 132.9 157.8 130.1C157.8 128.7 158.2 127.5 158.8 126.6C159.4 125.7 160.3 125.2 161.2 125.2L204 125.2" />
						<path id="Layer" class="shp7" d="M208.9 129.6C208 128.6 207 127.7 206 126.8C205.3 126.2 204.6 125.7 203.9 125.2C202.6 124.3 201.3 123.4 199.9 122.7C197.9 121.6 195.8 120.8 193.6 120.1C190.5 119.2 187.3 118.7 184 118.7L179.6 118.7L178.7 118.7L174.1 118.7L154.8 118.7C152.8 118.7 151 120 149.7 122C148.4 124.1 147.6 126.9 147.6 130.1C147.6 136.4 150.8 141.5 154.8 141.5L214.3 141.5" />
						<path id="Layer" class="shp7" d="M203.9 180.8L161.1 180.8C160.2 180.8 159.3 180.3 158.7 179.4C158.1 178.5 157.7 177.2 157.7 175.9C157.7 173.2 159.2 170.9 161.1 170.9L213.1 170.9" />
						<path id="Layer" class="shp7" d="M214.3 164.4L154.8 164.4C150.8 164.4 147.6 169.5 147.6 175.8C147.6 178.9 148.4 181.8 149.7 183.9C151 186 152.8 187.2 154.8 187.2L174.1 187.2L178.7 187.2L179.6 187.2L184 187.2C187.4 187.2 190.6 186.7 193.6 185.8C194.1 185.6 194.7 185.5 195.2 185.3C195.7 185.1 196.2 184.9 196.7 184.7C196.8 184.7 196.8 184.6 196.9 184.6C197.4 184.4 197.9 184.2 198.3 184L198.3 184C198.8 183.8 199.3 183.5 199.7 183.3L199.8 183.3C200.5 182.9 201.2 182.6 201.8 182.1C202.1 181.9 202.4 181.7 202.6 181.6C203 181.3 203.4 181.1 203.7 180.8L203.7 180.8C204.4 180.3 205.1 179.8 205.8 179.2C206.3 178.8 206.8 178.3 207.3 177.8C207.5 177.6 207.8 177.3 208 177.1C208.2 176.9 208.5 176.6 208.7 176.4" />
						<path id="Layer" class="shp7" d="M134.9 130.2L129.9 130.2C122.1 130.2 115.8 136.5 115.8 144.3L115.8 144.4C115.8 146.4 114.2 148 112.2 148L62.7 148C64.6 148.9 65.9 150.8 65.9 153C65.9 155.2 64.6 157.1 62.7 158C62.7 158 100.2 158.1 112.2 158.1C114.2 158.1 115.8 159.7 115.8 161.7C115.8 165.6 117.4 169.1 119.9 171.7C122.5 174.3 126 175.8 129.9 175.8L134.9 175.8" />
					</g>
				</g>
			</g>
		</g>
	</g>
</svg>