<svg version="1.2" baseProfile="tiny-ps" xmlns="http://www.w3.org/2000/svg" viewBox="0 0 262 307" width="262" height="307">
	<title>Spaceship_06_BLUE-svg</title>
	<style>
		tspan { white-space:pre }
		.shp0 { fill: #363636 } 
		.shp1 { fill: #292929 } 
		.shp2 { fill: #1c1c1c } 
		.shp3 { fill: #212121 } 
		.shp4 { fill: #91c9e8 } 
		.shp5 { fill: #3399cc } 
		.shp6 { fill: #404040 } 
		.shp7 { fill: none;stroke: #000000;stroke-width: 2 } 
	</style>
	<g id="Ideas">
	</g>
	<g id="Tools">
	</g>
	<g id="Spaceship6">
		<g id="Layer">
			<g id="Layer">
				<g id="XMLID_34_">
					<g id="Layer">
						<path id="Layer" class="shp0" d="M47.9 304.7L15 304.7L15 263L47.5 263L47.4 263.2L47.8 263.2C45.3 267.3 43.6 271.8 42.8 276.4L29.8 276.4C25.7 276.4 22.4 279.7 22.4 283.8L22.4 283.8C22.4 287.9 25.7 291.2 29.8 291.2L42.8 291.2C43.7 295.8 45.4 300.3 47.9 304.5L47.9 304.7Z" />
						<path id="Layer" class="shp1" d="M86.4 304.7L47.9 304.7L47.8 304.6C45.3 300.5 43.6 295.9 42.7 291.3L81.2 291.3C82.1 295.9 83.7 300.3 86.2 304.5L86.4 304.7Z" />
						<path id="Layer" class="shp0" d="M118.3 304.7L86.3 304.7L86.1 304.4C83.6 300.3 81.9 295.8 81.1 291.2L104.2 291.2C108.3 291.2 111.6 287.9 111.6 283.8C111.6 279.7 108.3 276.4 104.2 276.4C104.1 276.4 104.1 276.4 104 276.4L81.1 276.4C82 271.7 83.7 267.2 86.3 263L118.3 263C121.7 263 124.5 265.6 124.9 268.9C124.9 269.2 124.9 269.4 124.9 269.7L124.9 298C124.9 298.3 124.9 298.5 124.9 298.8C124.6 302.1 121.8 304.7 118.3 304.7Z" />
						<path id="Layer" class="shp2" d="M14.9 263L14.9 304.7C12.2 304.7 9.8 303.6 8 301.8C6.2 300 5.1 297.6 5.1 294.9L5.1 272.7C5.2 267.4 9.6 263 14.9 263Z" />
						<path id="Layer" class="shp3" d="M125 298.8L125 298.8C125 298.5 125 298.3 125 298L125 269.6C125 269.3 125 269.1 125 268.8L125 268.8C134.1 269.9 141 276.2 141 283.8C141 288 138.9 291.8 135.4 294.5C132.7 296.8 129.1 298.3 125 298.8Z" />
						<path id="Layer" class="shp4" d="M42.7 291.2L29.7 291.2C25.6 291.2 22.3 287.9 22.3 283.8L22.3 283.8C22.3 279.7 25.6 276.4 29.7 276.4L42.7 276.4L81.2 276.4L104.1 276.4C100.1 276.5 96.9 279.8 96.9 283.8C96.9 287.9 100.2 291.2 104.3 291.2L81.2 291.2L42.7 291.2Z" />
						<path id="Layer" class="shp5" d="M104.3 291.2C100.2 291.2 96.9 287.9 96.9 283.8C96.9 279.8 100.1 276.5 104.1 276.4C104.2 276.4 104.2 276.4 104.3 276.4C108.4 276.4 111.7 279.7 111.7 283.8C111.7 287.9 108.3 291.2 104.3 291.2Z" />
						<path id="Layer" class="shp1" d="M81.2 276.4L42.7 276.4C43.6 271.8 45.2 267.3 47.7 263.2L86.1 263.2L86.2 263L86.3 263C83.8 267.2 82.1 271.8 81.2 276.4Z" />
						<path id="Layer" class="shp3" d="M47.9 263L47.5 263L47.5 262.9L82.5 188.2L83.4 188.2C86.4 188.2 89.5 188.2 92.7 188.2L58.5 263L47.9 263Z" />
						<path id="Layer" class="shp1" d="M86.3 263L58.4 263L92.6 188.2L121.5 188.2L111.7 209.1L97.6 209.8L87.4 231L95.5 243.3L95.6 243.3L86.3 263Z" />
						<path id="Layer" class="shp4" d="M95.6 243.3L95.5 243.3L87.4 231L97.6 209.8L111.7 209.1L95.6 243.3Z" />
						<path id="Layer" fill-rule="evenodd" class="shp0" d="M202.7 228.3L188.8 228.3C178.4 228.3 166 219.9 166 209.5L166 202.8L206.4 202.8L200.8 208.8C199.9 209.7 199.4 211 199.4 212.3L199.4 218.8C199.4 220.1 199.9 221.3 200.8 222.3L205.4 227.2C204.7 227.8 203.7 228.3 202.7 228.3ZM179 218.4L192.4 218.4C194 218.4 195.3 217.1 195.3 215.5C195.3 213.9 194 212.6 192.4 212.6L179 212.6C177.4 212.6 176 213.9 176 215.5C176.1 217.1 177.4 218.4 179 218.4Z" />
						<path id="Layer" class="shp5" d="M205.3 227.1L200.7 222.2C199.8 221.3 199.3 220 199.3 218.7L199.3 212.2C199.3 210.9 199.8 209.6 200.7 208.7L206.3 202.7L206.3 206.4L206.3 213.9L206.3 216.9L206.3 224.4L206.3 224.5C206.4 225.6 206 226.5 205.3 227.1Z" />
						<path id="Layer" class="shp0" d="M230.3 217L230.3 224.5L206.4 224.5L206.4 217L230.3 217Z" />
						<path id="Layer" class="shp2" d="M232.1 224.5L230.3 224.5L230.3 217L232.1 217C233 217.8 233.4 218.3 234.3 219.2L234.3 222.4C233.4 223.2 233 223.7 232.1 224.5Z" />
						<path id="Layer" class="shp5" d="M192.4 218.4L179 218.4C177.4 218.4 176 217.1 176 215.5L176 215.5C176 213.9 177.3 212.6 179 212.6L192.4 212.6C194 212.6 195.3 213.9 195.3 215.5L195.3 215.5C195.4 217.1 194 218.4 192.4 218.4Z" />
						<path id="Layer" class="shp0" d="M230.3 206.4L230.3 213.9L206.4 213.9L206.4 206.4L230.3 206.4Z" />
						<path id="Layer" class="shp2" d="M232.1 214L230.3 214L230.3 206.5L232.1 206.5C233 207.3 233.4 207.8 234.3 208.7L234.3 211.9C233.4 212.6 233 213.1 232.1 214Z" />
						<path id="Layer" class="shp0" d="M214.1 202.5L166.4 202.5C157.3 202.5 148.9 199.7 141.9 194.8L142 194.7C146.6 193.2 150.8 190.9 154.5 188.1C157.4 185.9 161.1 184.9 164.7 185.1C165.1 185.1 165.5 185.1 165.8 185.1L194.3 185.1C198.7 185.1 202.9 183.6 206.3 181C206.5 180.8 206.7 180.6 207 180.5L207 180.5C207 180.6 207.1 180.7 207.2 180.8C207.8 181.7 208.6 182.5 209.7 183L212.1 184.1C214.9 185.4 218 184.2 219.4 181.8C224.4 187.8 231.1 192.3 238.7 194.8C231.7 199.6 223.2 202.5 214.1 202.5Z" />
						<path id="Layer" fill-rule="evenodd" class="shp6" d="M142 194.7L141.9 194.8C139.2 192.9 136.7 190.7 134.5 188.2C131.7 185.1 129.4 181.6 127.7 177.8C127.5 177.5 127.4 177.1 127.2 176.8L132.2 176.8C140 176.8 146.3 170.5 146.3 162.7L146.3 162.6C146.3 160.6 147.9 159 149.9 159L206.4 159L206.4 177.8C206.4 178.7 206.6 179.7 207.1 180.5C206.9 180.7 206.7 180.9 206.4 181C203 183.7 198.8 185.1 194.4 185.1C194 185.1 165.1 185.1 164.8 185.1C161.1 184.9 157.5 185.9 154.6 188.1C150.8 191 146.5 193.2 142 194.7ZM162.1 173.1L191.6 173.1C192.2 173.1 192.8 172.8 193.2 172.4C193.6 172 193.9 171.4 193.9 170.8C193.9 169.5 192.9 168.5 191.6 168.5L162.1 168.5C160.8 168.5 159.8 169.5 159.8 170.8C159.8 172.1 160.8 173.1 162.1 173.1Z" />
						<path id="Layer" class="shp0" d="M238.7 194.7C231.1 192.2 224.4 187.7 219.4 181.7C219.8 180.9 220.1 180.1 220.1 179.1L220.2 175.3C222.3 175.3 224.2 174.4 225.7 172.9L233.8 164.2L235 164.2C239.7 164.2 243.5 160.4 243.5 155.8L243.5 152.2C243.5 147.5 239.7 143.8 235 143.8L233.8 143.8L225.7 135.2C224.2 133.6 222.3 132.8 220.2 132.8L220.2 132.7L220.1 128.9C220.1 127.9 219.8 127.1 219.4 126.3C224.5 120.4 231.1 115.8 238.7 113.3C249.7 121 256.9 133.8 256.9 148.3L256.9 159.8C256.8 174.2 249.6 187 238.7 194.7Z" />
						<path id="Layer" class="shp1" d="M121.5 188.2L92.6 188.2L87.9 188.2L107.2 188.2C109.2 188.2 111 186.9 112.3 184.9C113.6 182.8 114.4 180 114.4 176.8C114.4 170.5 111.2 165.4 107.2 165.4L124 165.4C124.5 169.4 125.6 173.2 127.2 176.8C127.4 177.2 127.5 177.5 127.7 177.8C129.5 181.6 131.8 185.1 134.5 188.2L121.5 188.2L121.5 188.2Z" />
						<path id="Layer" class="shp1" d="M87.9 188.2L83.3 188.2L82.4 188.2L78 188.2C74.6 188.2 71.4 187.7 68.4 186.8C66.2 186.2 64.1 185.3 62.1 184.2C60.7 183.5 59.4 182.6 58.1 181.7L100.9 181.7C101.8 181.7 102.7 181.1 103.3 180.3C103.9 179.4 104.3 178.1 104.3 176.8C104.3 174.1 102.8 171.8 100.9 171.8L48.9 171.8C48.5 171.1 48.1 170.4 47.7 169.7C47 168.3 46.3 166.9 45.8 165.4C45.8 165.3 45.7 165.3 45.7 165.2C45.8 165.2 45.9 165.1 46 165.1L46 165.2L46 165.4L47.6 165.4L107.1 165.4C111.1 165.4 114.3 170.5 114.3 176.8C114.3 179.9 113.5 182.8 112.2 184.9C110.9 187 109.1 188.2 107.1 188.2L87.9 188.2Z" />
						<path id="Layer" class="shp6" d="M219.4 181.7C218 184.1 214.9 185.3 212.1 184L209.7 182.9C208.7 182.4 207.8 181.6 207.2 180.7C207.1 180.6 207.1 180.5 207 180.4C206.6 179.6 206.3 178.7 206.3 177.7L206.3 159L206.3 149L206.3 130.2C206.3 129.3 206.5 128.3 207 127.5C207.6 126.4 208.5 125.6 209.6 125L212 123.9C214.8 122.6 217.9 123.8 219.3 126.2C219.7 127 220 127.8 220 128.8L220.1 132.6L220.1 132.7C218.2 132.7 216.5 133.5 215.3 134.7C214.1 135.9 213.3 137.6 213.3 139.5L213.3 143.7L213.3 143.8L213.3 164.2L213.3 168.5C213.3 170.4 214.1 172.1 215.3 173.3C216.5 174.5 218.2 175.3 220.1 175.3L220 179.1C220.1 180.1 219.8 181 219.4 181.7Z" />
						<path id="Layer" class="shp5" d="M100.9 181.8L58 181.8C57.3 181.3 56.6 180.8 55.9 180.2C54.9 179.3 53.9 178.4 53 177.4C52 176.3 51 175.1 50.1 173.9C49.6 173.3 49.2 172.6 48.8 171.9L100.8 171.9C102.7 171.9 104.2 174.1 104.2 176.9C104.2 178.3 103.8 179.5 103.2 180.4C102.7 181.2 101.8 181.8 100.9 181.8Z" />
						<path id="Layer" class="shp0" d="M132.1 176.8L127.1 176.8C125.5 173.2 124.5 169.4 123.9 165.4C123.7 163.5 123.5 161.6 123.5 159.7L123.5 148.2C123.5 146.3 123.6 144.4 123.9 142.5C124.4 138.5 125.5 134.7 127.1 131.1L132.1 131.1C136 131.1 139.5 132.7 142.1 135.2C144.7 137.8 146.2 141.3 146.2 145.2C146.2 147.2 147.8 148.8 149.8 148.8C161.8 148.8 199.3 148.9 199.3 148.9C197.4 149.8 196.1 151.7 196.1 153.9C196.1 156.1 197.4 158 199.3 158.9L149.8 158.9C147.8 158.9 146.2 160.5 146.2 162.5L146.2 162.6C146.2 170.5 139.9 176.8 132.1 176.8Z" />
						<path id="Layer" class="shp5" d="M225.7 172.9C224.2 174.5 222.3 175.3 220.2 175.3C218.3 175.3 216.6 174.5 215.4 173.3C214.2 172.1 213.4 170.4 213.4 168.5L213.4 164.2L233.8 164.2L225.7 172.9Z" />
						<path id="Layer" class="shp4" d="M191.6 173.1L162.1 173.1C160.8 173.1 159.8 172.1 159.8 170.8C159.8 169.5 160.8 168.5 162.1 168.5L191.6 168.5C192.9 168.5 193.9 169.5 193.9 170.8C193.9 171.4 193.6 172 193.2 172.4C192.8 172.9 192.2 173.1 191.6 173.1Z" />
						<path id="Layer" class="shp3" d="M47.7 165.5L46.1 165.5L46.1 165.3C51.1 163.9 54.7 159.4 54.7 154.1C54.7 148.8 51.1 144.3 46.1 142.9L46.1 142.7L47.7 142.7L107.2 142.7L124 142.7C123.8 144.6 123.6 146.5 123.6 148.4L123.6 159.9C123.6 161.8 123.7 163.7 124 165.6L107.3 165.6L47.7 165.6L47.7 165.5Z" />
						<path id="Layer" class="shp1" d="M46.1 165.2L46.1 165.1C50.8 163.6 54.1 159.2 54.1 154C54.1 148.7 50.6 144.2 45.7 142.8C45.7 142.7 45.7 142.7 45.8 142.6C46.6 140.3 47.6 138.2 48.9 136.2L100.9 136.2C102.8 136.2 104.3 134 104.3 131.2C104.3 129.8 103.9 128.6 103.3 127.7C102.7 126.8 101.8 126.3 100.9 126.3L58.1 126.3C58.5 126 58.9 125.8 59.2 125.5C59.5 125.3 59.8 125.1 60 125C60.7 124.6 61.3 124.2 62 123.8C62 123.8 62 123.8 62.1 123.8C62.6 123.5 63.1 123.3 63.5 123.1L63.5 123.1C64 122.9 64.4 122.7 64.9 122.5C65 122.5 65 122.4 65.1 122.4C65.6 122.2 66.1 122 66.6 121.8C67.1 121.6 67.7 121.4 68.2 121.3C71.3 120.4 74.5 119.9 77.8 119.9L82.2 119.9L83.1 119.9L87.7 119.9L107 119.9C109 119.9 110.8 121.2 112.1 123.2C113.4 125.3 114.2 128.1 114.2 131.3C114.2 137.6 111 142.7 107 142.7L47.5 142.7L45.9 142.7L45.9 142.9C50.9 144.3 54.5 148.8 54.5 154.1C54.5 159.4 51 163.8 46.1 165.2Z" />
						<path id="Layer" class="shp4" d="M233.8 143.8L235 143.8C239.7 143.8 243.5 147.6 243.5 152.2L243.5 155.8C243.5 160.5 239.7 164.2 235 164.2L233.8 164.2L213.4 164.2L213.4 143.8L213.4 143.7L233.8 143.7L233.8 143.8Z" />
						<path id="Layer" class="shp4" d="M206.4 159L199.4 159C197.5 158.1 196.2 156.2 196.2 154C196.2 151.8 197.5 149.9 199.4 149L206.4 149L206.4 159Z" />
						<path id="Layer" fill-rule="evenodd" class="shp6" d="M199.4 149C199.4 149 161.9 148.9 149.9 148.9C147.9 148.9 146.3 147.3 146.3 145.3C146.3 141.4 144.7 137.9 142.2 135.3C139.6 132.7 136.1 131.2 132.2 131.2L127.2 131.2C127.4 130.8 127.5 130.5 127.7 130.1C129.5 126.3 131.8 122.9 134.5 119.8C136.7 117.3 139.2 115.1 141.9 113.2L142 113.3C146.6 114.8 150.8 117.1 154.5 119.9C157.4 122.1 161.1 123.1 164.7 122.9C165.1 122.9 165.5 122.9 165.8 122.9L194.3 122.9C198.7 122.9 202.9 124.4 206.3 127C206.5 127.2 206.7 127.3 207 127.5C206.6 128.3 206.3 129.2 206.3 130.2L206.3 149L199.4 149ZM162.1 139.5L191.6 139.5C192.9 139.5 193.9 138.5 193.9 137.2C193.9 136.6 193.6 136 193.2 135.6C192.8 135.2 192.2 134.9 191.6 134.9L162.1 134.9C160.8 134.9 159.8 135.9 159.8 137.2C159.8 138.4 160.8 139.5 162.1 139.5Z" />
						<path id="Layer" class="shp5" d="M233.8 143.8L213.4 143.8L213.4 139.6C213.4 137.7 214.2 136 215.4 134.8C216.6 133.6 218.3 132.8 220.2 132.8C222.3 132.8 224.2 133.7 225.7 135.2L233.8 143.8Z" />
						<path id="Layer" class="shp1" d="M124 142.6L107.3 142.6C111.3 142.6 114.5 137.5 114.5 131.2C114.5 128.1 113.7 125.2 112.4 123.1C111.1 121 109.3 119.8 107.3 119.8L88 119.8L92.7 119.8L121.6 119.8L134.5 119.8C131.8 122.9 129.5 126.3 127.7 130.1C127.5 130.5 127.4 130.8 127.2 131.2C125.6 134.7 124.5 138.6 124 142.6Z" />
						<path id="Layer" class="shp4" d="M191.6 139.5L162.1 139.5C160.8 139.5 159.8 138.5 159.8 137.2C159.8 135.9 160.8 134.9 162.1 134.9L191.6 134.9C192.2 134.9 192.8 135.2 193.2 135.6C193.6 136 193.9 136.6 193.9 137.2C193.9 138.4 192.8 139.5 191.6 139.5Z" />
						<path id="Layer" class="shp5" d="M100.9 136.1L48.9 136.1C50.1 134.1 51.5 132.3 53.1 130.6C53.3 130.3 53.6 130.1 53.8 129.9C54 129.7 54.3 129.4 54.5 129.2C55 128.7 55.5 128.3 56 127.8C56.7 127.2 57.4 126.7 58.1 126.2L58.1 126.2L100.9 126.2C101.8 126.2 102.7 126.7 103.3 127.6C103.9 128.5 104.3 129.8 104.3 131.1C104.3 133.9 102.8 136.1 100.9 136.1Z" />
						<path id="Layer" class="shp0" d="M206.4 127C203 124.3 198.8 122.9 194.4 122.9L165.9 122.9C165.5 122.9 165.1 122.9 164.8 122.9C161.1 123.1 157.5 122.1 154.6 119.9C150.9 117 146.6 114.8 142.1 113.3L142 113.2C148.9 108.3 157.4 105.5 166.5 105.5L214.2 105.5C223.4 105.5 231.9 108.4 238.8 113.3C231.2 115.8 224.6 120.3 219.5 126.3C218.1 123.9 215 122.7 212.2 124L209.8 125.1C208.7 125.6 207.8 126.5 207.2 127.6C206.8 127.3 206.6 127.1 206.4 127Z" />
						<path id="Layer" class="shp3" d="M47.9 45L58.5 45L92.7 119.8C89.5 119.8 86.4 119.8 83.4 119.8L82.5 119.8L47.5 45.1L47.5 45L47.9 45L47.9 45Z" />
						<path id="Layer" class="shp1" d="M121.5 119.8L92.6 119.8L58.4 45L86.3 45L95.6 64.7L95.5 64.7L87.4 77.1L97.6 98.2L111.7 98.9L121.5 119.8Z" />
						<path id="Layer" fill-rule="evenodd" class="shp0" d="M206.4 105.3L166 105.3L166 102.6C166 90 176.3 79.8 188.8 79.8L202.7 79.8C203.7 79.8 204.7 80.2 205.3 80.9L200.7 85.8C199.8 86.8 199.3 88 199.3 89.3L199.3 95.8C199.3 97.1 199.8 98.4 200.7 99.3L206.4 105.3ZM179 95.4L192.4 95.4C194 95.4 195.3 94.1 195.3 92.5C195.3 90.9 194 89.6 192.4 89.6L179 89.6C177.4 89.6 176 90.9 176 92.5C176.1 94.1 177.4 95.4 179 95.4Z" />
						<path id="Layer" class="shp5" d="M206.4 105.3L200.8 99.3C199.9 98.4 199.4 97.1 199.4 95.8L199.4 89.3C199.4 88 199.9 86.8 200.8 85.8L205.4 80.9C206.1 81.6 206.5 82.5 206.5 83.5L206.5 83.6L206.5 91.1L206.5 94.1L206.5 101.6L206.5 105.3L206.4 105.3Z" />
						<path id="Layer" class="shp0" d="M230.3 94.1L230.3 101.6L206.4 101.6L206.4 94.1L230.3 94.1Z" />
						<path id="Layer" class="shp2" d="M232.1 101.6L230.3 101.6L230.3 94.1L232.1 94.1C233 94.9 233.4 95.4 234.3 96.3L234.3 99.5C233.4 100.3 233 100.7 232.1 101.6Z" />
						<path id="Layer" class="shp4" d="M111.7 98.9L97.6 98.2L87.4 77.1L95.5 64.7L95.6 64.7L111.7 98.9Z" />
						<path id="Layer" class="shp5" d="M192.4 95.4L179 95.4C177.4 95.4 176 94.1 176 92.5L176 92.5C176 90.9 177.3 89.6 179 89.6L192.4 89.6C194 89.6 195.3 90.9 195.3 92.5L195.3 92.5C195.4 94.1 194 95.4 192.4 95.4Z" />
						<path id="Layer" class="shp0" d="M230.3 83.5L230.3 91L206.4 91L206.4 83.5L230.3 83.5Z" />
						<path id="Layer" class="shp2" d="M232.1 91L230.3 91L230.3 83.5L232.1 83.5C233 84.3 233.4 84.8 234.3 85.7L234.3 88.9C233.4 89.7 233 90.2 232.1 91Z" />
						<path id="Layer" class="shp0" d="M47.4 45L14.9 45L14.9 3.3L47.8 3.3L47.7 3.4C45.2 7.6 43.5 12.1 42.6 16.7L29.6 16.7C25.5 16.7 22.2 20 22.2 24.1L22.2 24.1C22.2 28.2 25.5 31.5 29.6 31.5L42.6 31.5C43.5 36.1 45.1 40.6 47.6 44.7L47.2 44.7L47.4 45Z" />
						<path id="Layer" class="shp1" d="M86.4 45L86.3 45L86.2 44.8L47.8 44.8C45.3 40.7 43.6 36.2 42.8 31.6L81.3 31.6C82.1 36.3 83.8 40.8 86.4 45Z" />
						<path id="Layer" class="shp0" d="M118.3 45L86.3 45C83.7 40.8 82 36.2 81.1 31.6L104 31.6C104.1 31.6 104.1 31.6 104.2 31.6C108.3 31.6 111.6 28.3 111.6 24.2C111.6 20.1 108.3 16.8 104.2 16.8L81.1 16.8C82 12.2 83.6 7.8 86.1 3.6L86.3 3.3L118.3 3.3C121.7 3.3 124.5 5.9 124.9 9.2C124.9 9.5 124.9 9.7 124.9 10L124.9 38.3C124.9 38.6 124.9 38.8 124.9 39.1C124.6 42.4 121.8 45 118.3 45Z" />
						<path id="Layer" class="shp2" d="M14.9 3.3L14.9 45C9.5 45 5.1 40.6 5.1 35.2L5.1 13C5.1 10.3 6.2 7.9 8 6.1C9.8 4.4 12.2 3.3 14.9 3.3Z" />
						<path id="Layer" class="shp3" d="M125 39.1L125 39.1C125 38.8 125 38.6 125 38.3L125 10C125 9.7 125 9.5 125 9.2L125 9.2C129.1 9.7 132.7 11.2 135.5 13.4C139 16.2 141.1 19.9 141.1 24.1C141 31.7 134.1 38 125 39.1Z" />
						<path id="Layer" class="shp5" d="M104.1 31.6C100.1 31.5 96.9 28.2 96.9 24.2C96.9 20.1 100.2 16.8 104.3 16.8C108.4 16.8 111.7 20.1 111.7 24.2C111.7 28.3 108.4 31.6 104.3 31.6C104.2 31.6 104.1 31.6 104.1 31.6Z" />
						<path id="Layer" class="shp4" d="M42.7 31.6L29.7 31.6C25.6 31.6 22.3 28.3 22.3 24.2L22.3 24.2C22.3 20.1 25.6 16.8 29.7 16.8L42.7 16.8L81.2 16.8L104.3 16.8C100.2 16.8 96.9 20.1 96.9 24.2C96.9 28.2 100.1 31.5 104.1 31.6L81.2 31.6L42.7 31.6Z" />
						<path id="Layer" class="shp1" d="M81.2 16.8L42.7 16.8C43.6 12.2 45.3 7.7 47.8 3.5L47.9 3.4L86.4 3.4L86.2 3.7C83.7 7.7 82 12.2 81.2 16.8Z" />
					</g>
					<g id="Layer">
						<path id="Layer" class="shp7" d="M238.7 194.7C249.7 187 256.9 174.2 256.9 159.7L256.9 148.2C256.9 133.8 249.7 121 238.7 113.2C231.7 108.3 223.3 105.4 214.1 105.4L166.4 105.4C157.3 105.4 148.9 108.2 141.9 113.1C139.2 115 136.7 117.2 134.5 119.7C131.8 122.8 129.5 126.2 127.7 130C127.5 130.4 127.4 130.7 127.2 131.1C125.6 134.7 124.5 138.5 124 142.5C123.8 144.4 123.6 146.3 123.6 148.2L123.6 159.7C123.6 161.6 123.7 163.5 124 165.4C124.5 169.4 125.6 173.2 127.2 176.8C127.4 177.2 127.5 177.5 127.7 177.8C129.5 181.6 131.8 185.1 134.5 188.2C136.7 190.7 139.2 192.9 141.9 194.8C148.8 199.7 157.3 202.5 166.4 202.5L214.1 202.5C223.2 202.5 231.7 199.6 238.7 194.7Z" />
						<path id="Layer" class="shp7" d="M121.5 188.2L134.4 188.2" />
						<path id="Layer" class="shp7" d="M87.9 188.2L92.6 188.2" />
						<path id="Layer" class="shp7" d="M53.1 130.6C51.5 132.3 50.1 134.1 48.9 136.1C47.7 138.1 46.6 140.3 45.8 142.5C45.8 142.6 45.7 142.6 45.7 142.7C50.6 144.1 54.1 148.6 54.1 153.9C54.1 159.1 50.7 163.5 46.1 165C46 165.1 45.9 165.1 45.8 165.1C45.8 165.2 45.8 165.2 45.9 165.3C46.4 166.8 47.1 168.3 47.8 169.6C48.2 170.3 48.6 171 49 171.7C49.4 172.4 49.9 173.1 50.3 173.7C51.2 174.9 52.2 176.1 53.2 177.2" />
						<path id="Layer" class="shp7" d="M63.6 123C63.1 123.2 62.6 123.5 62.2 123.7" />
						<path id="Layer" class="shp7" d="M65 122.4C64.5 122.6 64 122.8 63.6 123" />
						<path id="Layer" class="shp7" d="M66.7 121.7C66.2 121.9 65.7 122.1 65.2 122.3" />
						<path id="Layer" class="shp7" d="M92.6 119.8L87.9 119.8" />
						<path id="Layer" class="shp7" d="M134.4 119.8L121.5 119.8" />
						<path id="Layer" class="shp7" d="M83.3 188.2C86.3 188.2 89.4 188.2 92.6 188.2L121.5 188.2L111.7 209L95.6 243.3L86.3 263L86.2 263.2L47.8 263.2L47.4 263.2L47.5 263L47.5 262.9L82.5 188.2" />
						<path id="Layer" class="shp7" d="M47.9 304.7L14.9 304.7" />
						<path id="Layer" class="shp7" d="M14.9 263L47.4 263L47.8 263L58.4 263L86.3 263L86.4 263L118.4 263C121.8 263 124.6 265.6 125 268.9C125 269.2 125 269.4 125 269.7L125 298C125 298.3 125 298.5 125 298.8C124.6 302.1 121.8 304.7 118.4 304.7L86.4 304.7" />
						<path id="Layer" class="shp7" d="M125 268.9C134.1 270 141 276.3 141 283.9C141 288.1 138.9 291.9 135.4 294.6C132.6 296.8 129 298.3 124.9 298.8" />
						<path id="Layer" class="shp7" d="M14.9 304.7C12.2 304.7 9.8 303.6 8 301.8C6.2 300 5.1 297.6 5.1 294.9L5.1 272.7C5.1 267.3 9.5 262.9 14.9 262.9L14.9 304.7L14.9 304.7Z" />
						<path id="Layer" class="shp7" d="M47.9 262.6L47.9 263L47.8 263.1C47.8 263.1 47.8 263.2 47.7 263.2C45.2 267.3 43.5 271.8 42.7 276.4" />
						<path id="Layer" class="shp7" d="M42.7 291.2C43.6 295.8 45.3 300.3 47.8 304.5L47.9 304.6L86.4 304.6L86.2 304.3C83.7 300.2 82 295.7 81.2 291.1" />
						<path id="Layer" class="shp7" d="M81.2 276.4C82.1 271.7 83.8 267.2 86.4 263" />
						<path id="Layer" class="shp7" d="M104.3 291.2C100.2 291.2 96.9 287.9 96.9 283.8C96.9 279.8 100.1 276.5 104.1 276.4C104.2 276.4 104.2 276.4 104.3 276.4C108.4 276.4 111.7 279.7 111.7 283.8C111.7 287.9 108.3 291.2 104.3 291.2Z" />
						<path id="Layer" class="shp7" d="M104.3 276.5L104.3 276.5L104.1 276.5L81.2 276.5L42.7 276.5L29.7 276.5C25.6 276.5 22.3 279.8 22.3 283.9L22.3 283.9C22.3 288 25.6 291.3 29.7 291.3L42.7 291.3L81.2 291.3L104.3 291.3L104.3 291.3" />
						<path id="Layer" class="shp7" d="M213.4 143.8L233.8 143.8L235 143.8C239.7 143.8 243.5 147.6 243.5 152.2L243.5 155.8C243.5 160.5 239.7 164.2 235 164.2L233.8 164.2L213.4 164.2L213.4 143.8Z" />
						<path id="Layer" class="shp7" d="M233.9 164.2L225.8 172.9C224.3 174.5 222.4 175.3 220.3 175.3C218.4 175.3 216.7 174.5 215.5 173.3C214.3 172.1 213.5 170.4 213.5 168.5L213.5 164.2" />
						<path id="Layer" class="shp7" d="M233.9 143.8L233.9 143.8L225.8 135.1C224.3 133.5 222.4 132.7 220.3 132.7C218.4 132.7 216.7 133.5 215.5 134.7C214.3 135.9 213.5 137.6 213.5 139.5L213.5 143.7L213.5 143.8" />
						<path id="Layer" class="shp7" d="M220.2 175.3L220.1 179.1C220.1 180.1 219.8 180.9 219.4 181.7C218 184.1 214.9 185.3 212.1 184L209.7 182.9C208.7 182.4 207.8 181.6 207.2 180.7C207.1 180.6 207.1 180.5 207 180.4C206.6 179.6 206.3 178.7 206.3 177.7" />
						<path id="Layer" class="shp7" d="M206.4 127L206.4 126.9" />
						<path id="Layer" class="shp7" d="M206.4 159L206.4 177.8" />
						<path id="Layer" class="shp7" d="M220.2 132.6L220.1 128.8C220.1 127.8 219.8 127 219.4 126.2C218 123.8 214.9 122.6 212.1 123.9L209.7 125C208.6 125.5 207.7 126.4 207.1 127.5C206.7 128.3 206.4 129.2 206.4 130.2L206.4 149" />
						<path id="Layer" class="shp7" d="M199.4 149L206.4 149L206.4 159L199.4 159" />
						<path id="Layer" class="shp7" d="M159.8 170.8C159.8 169.5 160.8 168.5 162.1 168.5L191.6 168.5C192.9 168.5 193.9 169.5 193.9 170.8C193.9 171.4 193.6 172 193.2 172.4C192.8 172.8 192.2 173.1 191.6 173.1L162.1 173.1C160.8 173.1 159.8 172.1 159.8 170.8Z" />
						<path id="Layer" class="shp7" d="M159.8 137.2C159.8 138.5 160.8 139.5 162.1 139.5L191.6 139.5C192.9 139.5 193.9 138.5 193.9 137.2C193.9 136.6 193.6 136 193.2 135.6C192.8 135.2 192.2 134.9 191.6 134.9L162.1 134.9C160.8 134.9 159.8 135.9 159.8 137.2Z" />
						<path id="Layer" class="shp7" d="M219.4 181.7C224.4 187.7 231.1 192.2 238.7 194.7" />
						<path id="Layer" class="shp7" d="M238.7 113.3C231.1 115.8 224.5 120.3 219.4 126.3" />
						<path id="Layer" class="shp7" d="M142 113.3C146.6 114.8 150.8 117.1 154.5 119.9C157.4 122.1 161.1 123.1 164.7 122.9C165.1 122.9 165.5 122.9 165.8 122.9L194.3 122.9C198.7 122.9 202.9 124.4 206.3 127C206.5 127.2 206.7 127.3 207 127.5" />
						<path id="Layer" class="shp7" d="M207 180.5C206.8 180.7 206.6 180.9 206.3 181C202.9 183.7 198.7 185.1 194.3 185.1L165.8 185.1C165.4 185.1 165 185.1 164.7 185.1C161 184.9 157.4 185.9 154.5 188.1C150.8 190.9 146.5 193.2 142 194.7" />
						<path id="Layer" class="shp7" d="M206.4 224.5L206.4 224.5C206.4 225.6 206 226.5 205.3 227.1C204.6 227.8 203.7 228.2 202.7 228.2L188.8 228.2C178.4 228.2 166 219.8 166 209.4L166 202.7L206.4 202.7L206.4 206.4" />
						<path id="Layer" class="shp7" d="M206.4 214L206.4 217" />
						<path id="Layer" class="shp7" d="M230.3 214L206.4 214L206.4 206.4L230.3 206.4" />
						<path id="Layer" class="shp7" d="M230.3 214L232.1 214C233 213.1 233.4 212.7 234.3 211.8L234.3 208.6C233.5 207.8 233 207.3 232.1 206.4L230.3 206.4L230.3 214Z" />
						<path id="Layer" class="shp7" d="M230.3 224.5L206.4 224.5L206.4 217L230.3 217" />
						<path id="Layer" class="shp7" d="M230.3 224.5L232.1 224.5C233 223.7 233.4 223.2 234.3 222.3L234.3 219.1C233.5 218.3 233 217.8 232.1 216.9L230.3 216.9L230.3 224.5Z" />
						<path id="Layer" class="shp7" d="M206.4 202.7L200.8 208.7C199.9 209.6 199.4 210.9 199.4 212.2L199.4 218.7C199.4 220 199.9 221.2 200.8 222.2L205.4 227.1" />
						<path id="Layer" class="shp7" d="M176.1 215.5L176.1 215.5C176.1 213.9 177.4 212.5 179.1 212.5L192.5 212.5C194.1 212.5 195.4 213.8 195.4 215.4L195.4 215.4C195.4 217 194.1 218.3 192.5 218.3L179 218.3C177.4 218.4 176.1 217.1 176.1 215.5Z" />
						<path id="Layer" class="shp7" d="M206.4 83.5L206.4 83.5C206.4 82.4 206 81.5 205.3 80.9C204.6 80.2 203.7 79.8 202.7 79.8L188.8 79.8C176.2 79.8 166 90.1 166 102.6L166 105.3L206.4 105.3L206.4 101.6" />
						<path id="Layer" class="shp7" d="M206.4 94.1L206.4 91" />
						<path id="Layer" class="shp7" d="M230.3 94.1L206.4 94.1L206.4 101.6L230.3 101.6" />
						<path id="Layer" class="shp7" d="M230.3 94.1L232.1 94.1C233 94.9 233.4 95.4 234.3 96.3L234.3 99.5C233.5 100.4 233 100.8 232.1 101.7L230.3 101.7L230.3 94.1Z" />
						<path id="Layer" class="shp7" d="M230.3 83.5L206.4 83.5L206.4 91L230.3 91" />
						<path id="Layer" class="shp7" d="M230.3 83.5L232.1 83.5C233 84.3 233.4 84.8 234.3 85.7L234.3 88.9C233.5 89.7 233 90.2 232.1 91.1L230.3 91.1L230.3 83.5Z" />
						<path id="Layer" class="shp7" d="M206.4 105.3L200.8 99.3C199.9 98.4 199.4 97.1 199.4 95.8L199.4 89.3C199.4 88 199.9 86.8 200.8 85.8L205.4 80.9" />
						<path id="Layer" class="shp7" d="M176.1 92.5L176.1 92.5C176.1 94.1 177.4 95.4 179.1 95.4L192.5 95.4C194.1 95.4 195.4 94.1 195.4 92.5L195.4 92.5C195.4 90.9 194.1 89.6 192.5 89.6L179 89.6C177.4 89.6 176.1 90.9 176.1 92.5Z" />
						<path id="Layer" class="shp7" d="M107.2 142.6L124 142.6" />
						<path id="Layer" class="shp7" d="M47.7 165.5L46.1 165.5L46.1 165.3C51.1 163.9 54.7 159.4 54.7 154.1C54.7 148.8 51.1 144.3 46.1 142.9L46.1 142.7L47.7 142.7" />
						<path id="Layer" class="shp7" d="M124 165.5L107.2 165.5" />
						<path id="Layer" class="shp7" d="M92.6 188.2L58.4 263L58.3 263.2" />
						<path id="Layer" class="shp7" d="M111.7 209.1L97.6 209.8L87.4 231L95.5 243.3" />
						<path id="Layer" class="shp7" d="M83.3 119.8C86.3 119.8 89.4 119.8 92.6 119.8L121.5 119.8L111.7 99L95.6 64.7L86.3 45L86.2 44.8L47.8 44.8L47.4 44.8L47.5 45L47.5 45.1L82.5 119.8" />
						<path id="Layer" class="shp7" d="M86.4 3.3L118.4 3.3C121.8 3.3 124.6 5.9 125 9.2C125 9.5 125 9.7 125 10L125 38.3C125 38.6 125 38.8 125 39.1C124.6 42.4 121.8 45 118.4 45L86.4 45L86.3 45L58.4 45L47.8 45L47.4 45L14.9 45" />
						<path id="Layer" class="shp7" d="M14.9 3.3L47.9 3.3" />
						<path id="Layer" class="shp7" d="M125 9.2C129.1 9.7 132.7 11.2 135.5 13.4C139 16.2 141.1 19.9 141.1 24.1C141.1 31.6 134.2 37.9 125.1 39.1" />
						<path id="Layer" class="shp7" d="M14.9 3.3C12.2 3.3 9.8 4.4 8 6.2C6.2 8 5.1 10.4 5.1 13.1L5.1 35.3C5.1 40.7 9.5 45.1 14.9 45.1L14.9 3.3L14.9 3.3Z" />
						<path id="Layer" class="shp7" d="M42.7 31.6C43.6 36.2 45.2 40.7 47.7 44.8C47.7 44.8 47.7 44.9 47.8 44.9L47.9 45L47.9 45.4" />
						<path id="Layer" class="shp7" d="M81.2 16.8C82.1 12.2 83.7 7.8 86.2 3.6L86.4 3.3L47.9 3.3L47.8 3.4C45.3 7.6 43.6 12.1 42.7 16.7" />
						<path id="Layer" class="shp7" d="M86.4 45C83.8 40.8 82.1 36.2 81.2 31.6" />
						<path id="Layer" class="shp7" d="M104.3 16.8C100.2 16.8 96.9 20.1 96.9 24.2C96.9 28.2 100.1 31.5 104.1 31.6C104.2 31.6 104.2 31.6 104.3 31.6C108.4 31.6 111.7 28.3 111.7 24.2C111.7 20.1 108.3 16.8 104.3 16.8Z" />
						<path id="Layer" class="shp7" d="M104.3 16.8L104.3 16.8L81.2 16.8L42.7 16.8L29.7 16.8C25.6 16.8 22.3 20.1 22.3 24.2L22.3 24.2C22.3 28.3 25.6 31.6 29.7 31.6L42.7 31.6L81.2 31.6L104.1 31.6L104.3 31.6L104.3 31.6" />
						<path id="Layer" class="shp7" d="M92.6 119.8L58.4 45L58.3 44.8" />
						<path id="Layer" class="shp7" d="M111.7 98.9L97.6 98.2L87.4 77.1L95.5 64.7" />
						<path id="Layer" class="shp7" d="M48.8 171.9L100.8 171.9C102.7 171.9 104.2 174.1 104.2 176.9C104.2 178.3 103.8 179.5 103.2 180.4C102.6 181.3 101.7 181.8 100.8 181.8L58 181.8" />
						<path id="Layer" class="shp7" d="M53.1 177.4C54 178.4 55 179.3 56 180.2C56.7 180.8 57.4 181.3 58.1 181.8C59.4 182.7 60.7 183.6 62.1 184.3C64.1 185.4 66.2 186.2 68.4 186.9C71.5 187.8 74.7 188.3 78 188.3L82.4 188.3L83.3 188.3L87.9 188.3L107.2 188.3C109.2 188.3 111 187 112.3 185C113.6 182.9 114.4 180.1 114.4 176.9C114.4 170.6 111.2 165.5 107.2 165.5L47.7 165.5" />
						<path id="Layer" class="shp7" d="M58.1 126.2L100.9 126.2C101.8 126.2 102.7 126.7 103.3 127.6C103.9 128.5 104.3 129.8 104.3 131.1C104.3 133.8 102.8 136.1 100.9 136.1L48.9 136.1" />
						<path id="Layer" class="shp7" d="M47.7 142.6L107.2 142.6C111.2 142.6 114.4 137.5 114.4 131.2C114.4 128.1 113.6 125.2 112.3 123.1C111 121 109.2 119.8 107.2 119.8L87.9 119.8L83.3 119.8L82.4 119.8L78 119.8C74.6 119.8 71.4 120.3 68.4 121.2C67.9 121.4 67.3 121.5 66.8 121.7C66.3 121.9 65.8 122.1 65.3 122.3C65.2 122.3 65.2 122.4 65.1 122.4C64.6 122.6 64.1 122.8 63.7 123L63.7 123C63.2 123.2 62.7 123.5 62.3 123.7L62.2 123.7C61.5 124.1 60.8 124.4 60.2 124.9C59.9 125.1 59.6 125.3 59.4 125.4C59 125.7 58.6 125.9 58.3 126.2L58.3 126.2C57.6 126.7 56.9 127.2 56.2 127.8C55.7 128.2 55.2 128.7 54.7 129.2C54.5 129.4 54.2 129.7 54 129.9C53.8 130.1 53.5 130.4 53.3 130.6" />
						<path id="Layer" class="shp7" d="M127.1 176.8L132.1 176.8C139.9 176.8 146.2 170.5 146.2 162.7L146.2 162.6C146.2 160.6 147.8 159 149.8 159L199.3 159C197.4 158.1 196.1 156.2 196.1 154C196.1 151.8 197.4 149.9 199.3 149C199.3 149 161.8 148.9 149.8 148.9C147.8 148.9 146.2 147.3 146.2 145.3C146.2 141.4 144.6 137.9 142.1 135.3C139.5 132.7 136 131.2 132.1 131.2L127.1 131.2" />
					</g>
				</g>
			</g>
		</g>
	</g>
</svg>