<svg version="1.2" baseProfile="tiny-ps" xmlns="http://www.w3.org/2000/svg" viewBox="0 0 307 262" width="307" height="262">
	<title>Spaceship_06_BLUE-svg</title>
	<style>
		tspan { white-space:pre }
		.shp0 { fill: #363636 } 
		.shp1 { fill: #292929 } 
		.shp2 { fill: #1c1c1c } 
		.shp3 { fill: #212121 } 
		.shp4 { fill: #91c9e8 } 
		.shp5 { fill: #3399cc } 
		.shp6 { fill: #404040 } 
		.shp7 { fill: none;stroke: #000000;stroke-width: 2 } 
	</style>
	<g id="Ideas">
	</g>
	<g id="Tools">
	</g>
	<g id="Spaceship6">
		<g id="Layer">
			<g id="Layer">
				<g id="XMLID_34_">
					<g id="Layer">
						<path id="Layer" class="shp0" d="M304.7 214.1L304.7 247L263 247L263 214.5L263.2 214.6L263.2 214.2C267.3 216.7 271.8 218.4 276.4 219.2L276.4 232.2C276.4 236.3 279.7 239.6 283.8 239.6L283.8 239.6C287.9 239.6 291.2 236.3 291.2 232.2L291.2 219.2C295.8 218.3 300.3 216.6 304.5 214.1L304.7 214.1Z" />
						<path id="Layer" class="shp1" d="M304.7 175.6L304.7 214.1L304.6 214.2C300.5 216.7 295.9 218.4 291.3 219.3L291.3 180.8C295.9 179.9 300.3 178.3 304.5 175.8L304.7 175.6Z" />
						<path id="Layer" class="shp0" d="M304.7 143.7L304.7 175.7L304.4 175.9C300.3 178.4 295.8 180.1 291.2 180.9L291.2 157.8C291.2 153.7 287.9 150.4 283.8 150.4C279.7 150.4 276.4 153.7 276.4 157.8C276.4 157.9 276.4 157.9 276.4 158L276.4 180.9C271.7 180 267.2 178.3 263 175.7L263 143.7C263 140.3 265.6 137.5 268.9 137.1C269.2 137.1 269.4 137.1 269.7 137.1L298 137.1C298.3 137.1 298.5 137.1 298.8 137.1C302.1 137.4 304.7 140.2 304.7 143.7Z" />
						<path id="Layer" class="shp2" d="M263 247.1L304.7 247.1C304.7 249.8 303.6 252.2 301.8 254C300 255.8 297.6 256.9 294.9 256.9L272.7 256.9C267.4 256.8 263 252.4 263 247.1Z" />
						<path id="Layer" class="shp3" d="M298.8 137L298.8 137C298.5 137 298.3 137 298 137L269.6 137C269.3 137 269.1 137 268.8 137L268.8 137C269.9 127.9 276.2 121 283.8 121C288 121 291.8 123.1 294.5 126.6C296.8 129.3 298.3 132.9 298.8 137Z" />
						<path id="Layer" class="shp4" d="M291.2 219.3L291.2 232.3C291.2 236.4 287.9 239.7 283.8 239.7L283.8 239.7C279.7 239.7 276.4 236.4 276.4 232.3L276.4 219.3L276.4 180.8L276.4 157.9C276.5 161.9 279.8 165.1 283.8 165.1C287.9 165.1 291.2 161.8 291.2 157.7L291.2 180.8L291.2 219.3Z" />
						<path id="Layer" class="shp5" d="M291.2 157.7C291.2 161.8 287.9 165.1 283.8 165.1C279.8 165.1 276.5 161.9 276.4 157.9C276.4 157.8 276.4 157.8 276.4 157.7C276.4 153.6 279.7 150.3 283.8 150.3C287.9 150.3 291.2 153.7 291.2 157.7Z" />
						<path id="Layer" class="shp1" d="M276.4 180.8L276.4 219.3C271.8 218.4 267.3 216.8 263.2 214.3L263.2 175.9L263 175.8L263 175.7C267.2 178.2 271.8 179.9 276.4 180.8Z" />
						<path id="Layer" class="shp3" d="M263 214.1L263 214.5L262.9 214.5L188.2 179.5L188.2 178.6C188.2 175.6 188.2 172.5 188.2 169.3L263 203.5L263 214.1Z" />
						<path id="Layer" class="shp1" d="M263 175.7L263 203.6L188.2 169.4L188.2 140.5L209.1 150.3L209.8 164.4L231 174.6L243.3 166.5L243.3 166.4L263 175.7Z" />
						<path id="Layer" class="shp4" d="M243.3 166.4L243.3 166.5L231 174.6L209.8 164.4L209.1 150.3L243.3 166.4Z" />
						<path id="Layer" fill-rule="evenodd" class="shp0" d="M228.3 59.3L228.3 73.2C228.3 83.6 219.9 96 209.5 96L202.8 96L202.8 55.6L208.8 61.2C209.7 62.1 211 62.6 212.3 62.6L218.8 62.6C220.1 62.6 221.3 62.1 222.3 61.2L227.2 56.6C227.8 57.3 228.3 58.3 228.3 59.3ZM218.4 83L218.4 69.6C218.4 68 217.1 66.7 215.5 66.7C213.9 66.7 212.6 68 212.6 69.6L212.6 83C212.6 84.6 213.9 86 215.5 86C217.1 85.9 218.4 84.6 218.4 83Z" />
						<path id="Layer" class="shp5" d="M227.1 56.7L222.2 61.3C221.3 62.2 220 62.7 218.7 62.7L212.2 62.7C210.9 62.7 209.6 62.2 208.7 61.3L202.7 55.7L206.4 55.7L213.9 55.7L216.9 55.7L224.4 55.7L224.5 55.7C225.6 55.6 226.5 56 227.1 56.7Z" />
						<path id="Layer" class="shp0" d="M217 31.7L224.5 31.7L224.5 55.6L217 55.6L217 31.7Z" />
						<path id="Layer" class="shp2" d="M224.5 29.9L224.5 31.7L217 31.7L217 29.9C217.8 29 218.3 28.6 219.2 27.7L222.4 27.7C223.2 28.6 223.7 29 224.5 29.9Z" />
						<path id="Layer" class="shp5" d="M218.4 69.6L218.4 83C218.4 84.6 217.1 86 215.5 86L215.5 86C213.9 86 212.6 84.7 212.6 83L212.6 69.6C212.6 68 213.9 66.7 215.5 66.7L215.5 66.7C217.1 66.6 218.4 68 218.4 69.6Z" />
						<path id="Layer" class="shp0" d="M206.4 31.7L213.9 31.7L213.9 55.6L206.4 55.6L206.4 31.7Z" />
						<path id="Layer" class="shp2" d="M214 29.9L214 31.7L206.5 31.7L206.5 29.9C207.3 29 207.8 28.6 208.7 27.7L211.9 27.7C212.6 28.6 213.1 29 214 29.9Z" />
						<path id="Layer" class="shp0" d="M202.5 47.9L202.5 95.6C202.5 104.7 199.7 113.1 194.8 120.1L194.7 120C193.2 115.4 190.9 111.2 188.1 107.5C185.9 104.6 184.9 100.9 185.1 97.3C185.1 96.9 185.1 96.5 185.1 96.2L185.1 67.7C185.1 63.3 183.6 59.1 181 55.7C180.8 55.5 180.6 55.3 180.5 55L180.5 55C180.6 55 180.7 54.9 180.8 54.8C181.7 54.2 182.5 53.4 183 52.3L184.1 49.9C185.4 47.1 184.2 44 181.8 42.6C187.8 37.6 192.3 30.9 194.8 23.3C199.6 30.3 202.5 38.8 202.5 47.9Z" />
						<path id="Layer" fill-rule="evenodd" class="shp6" d="M194.7 120L194.8 120.1C192.9 122.8 190.7 125.3 188.2 127.5C185.1 130.3 181.6 132.6 177.8 134.3C177.5 134.5 177.1 134.6 176.8 134.8L176.8 129.8C176.8 122 170.5 115.7 162.7 115.7L162.6 115.7C160.6 115.7 159 114.1 159 112.1L159 55.6L177.8 55.6C178.7 55.6 179.7 55.4 180.5 54.9C180.7 55.1 180.9 55.3 181 55.6C183.7 59 185.1 63.2 185.1 67.6C185.1 68 185.1 96.9 185.1 97.2C184.9 100.9 185.9 104.5 188.1 107.4C191 111.2 193.2 115.5 194.7 120ZM173.1 99.9L173.1 70.4C173.1 69.8 172.8 69.2 172.4 68.8C172 68.4 171.4 68.1 170.8 68.1C169.5 68.1 168.5 69.1 168.5 70.4L168.5 99.9C168.5 101.2 169.5 102.2 170.8 102.2C172.1 102.2 173.1 101.2 173.1 99.9Z" />
						<path id="Layer" class="shp0" d="M194.7 23.3C192.2 30.9 187.7 37.6 181.7 42.6C180.9 42.2 180.1 41.9 179.1 41.9L175.3 41.8C175.3 39.7 174.4 37.8 172.9 36.3L164.2 28.2L164.2 27C164.2 22.3 160.4 18.5 155.8 18.5L152.2 18.5C147.5 18.5 143.8 22.3 143.8 27L143.8 28.2L135.2 36.3C133.6 37.8 132.8 39.7 132.8 41.8L132.7 41.8L128.9 41.9C127.9 41.9 127.1 42.2 126.3 42.6C120.4 37.5 115.8 30.9 113.3 23.3C121 12.3 133.8 5.1 148.3 5.1L159.8 5.1C174.2 5.2 187 12.4 194.7 23.3Z" />
						<path id="Layer" class="shp1" d="M188.2 140.5L188.2 169.4L188.2 174.1L188.2 154.8C188.2 152.8 186.9 151 184.9 149.7C182.8 148.4 180 147.6 176.8 147.6C170.5 147.6 165.4 150.8 165.4 154.8L165.4 138C169.4 137.5 173.2 136.4 176.8 134.8C177.2 134.6 177.5 134.5 177.8 134.3C181.6 132.5 185.1 130.2 188.2 127.5L188.2 140.5L188.2 140.5Z" />
						<path id="Layer" class="shp1" d="M188.2 174.1L188.2 178.7L188.2 179.6L188.2 184C188.2 187.4 187.7 190.6 186.8 193.6C186.2 195.8 185.3 197.9 184.2 199.9C183.5 201.3 182.6 202.6 181.7 203.9L181.7 161.1C181.7 160.2 181.1 159.3 180.3 158.7C179.4 158.1 178.1 157.7 176.8 157.7C174.1 157.7 171.8 159.2 171.8 161.1L171.8 213.1C171.1 213.5 170.4 213.9 169.7 214.3C168.3 215 166.9 215.7 165.4 216.2C165.3 216.2 165.3 216.3 165.2 216.3C165.2 216.2 165.1 216.1 165.1 216L165.2 216L165.4 216L165.4 214.4L165.4 154.9C165.4 150.9 170.5 147.7 176.8 147.7C179.9 147.7 182.8 148.5 184.9 149.8C187 151.1 188.2 152.9 188.2 154.9L188.2 174.1Z" />
						<path id="Layer" class="shp6" d="M181.7 42.6C184.1 44 185.3 47.1 184 49.9L182.9 52.3C182.4 53.3 181.6 54.2 180.7 54.8C180.6 54.9 180.5 54.9 180.4 55C179.6 55.4 178.7 55.7 177.7 55.7L159 55.7L149 55.7L130.2 55.7C129.3 55.7 128.3 55.5 127.5 55C126.4 54.4 125.6 53.5 125 52.4L123.9 50C122.6 47.2 123.8 44.1 126.2 42.7C127 42.3 127.8 42 128.8 42L132.6 41.9L132.7 41.9C132.7 43.8 133.5 45.5 134.7 46.7C135.9 47.9 137.6 48.7 139.5 48.7L143.7 48.7L143.8 48.7L164.2 48.7L168.5 48.7C170.4 48.7 172.1 47.9 173.3 46.7C174.5 45.5 175.3 43.8 175.3 41.9L179.1 42C180.1 41.9 181 42.2 181.7 42.6Z" />
						<path id="Layer" class="shp5" d="M181.8 161.1L181.8 204C181.3 204.7 180.8 205.4 180.2 206.1C179.3 207.1 178.4 208.1 177.4 209C176.3 210 175.1 211 173.9 211.9C173.3 212.4 172.6 212.8 171.9 213.2L171.9 161.2C171.9 159.3 174.1 157.8 176.9 157.8C178.3 157.8 179.5 158.2 180.4 158.8C181.2 159.3 181.8 160.2 181.8 161.1Z" />
						<path id="Layer" class="shp0" d="M176.8 129.9L176.8 134.9C173.2 136.5 169.4 137.5 165.4 138.1C163.5 138.3 161.6 138.5 159.7 138.5L148.2 138.5C146.3 138.5 144.4 138.4 142.5 138.1C138.5 137.6 134.7 136.5 131.1 134.9L131.1 129.9C131.1 126 132.7 122.5 135.2 119.9C137.8 117.3 141.3 115.8 145.2 115.8C147.2 115.8 148.8 114.2 148.8 112.2C148.8 100.2 148.9 62.7 148.9 62.7C149.8 64.6 151.7 65.9 153.9 65.9C156.1 65.9 158 64.6 158.9 62.7L158.9 112.2C158.9 114.2 160.5 115.8 162.5 115.8L162.6 115.8C170.5 115.8 176.8 122.1 176.8 129.9Z" />
						<path id="Layer" class="shp5" d="M172.9 36.3C174.5 37.8 175.3 39.7 175.3 41.8C175.3 43.7 174.5 45.4 173.3 46.6C172.1 47.8 170.4 48.6 168.5 48.6L164.2 48.6L164.2 28.2L172.9 36.3Z" />
						<path id="Layer" class="shp4" d="M173.1 70.4L173.1 99.9C173.1 101.2 172.1 102.2 170.8 102.2C169.5 102.2 168.5 101.2 168.5 99.9L168.5 70.4C168.5 69.1 169.5 68.1 170.8 68.1C171.4 68.1 172 68.4 172.4 68.8C172.9 69.2 173.1 69.8 173.1 70.4Z" />
						<path id="Layer" class="shp3" d="M165.5 214.3L165.5 215.9L165.3 215.9C163.9 210.9 159.4 207.3 154.1 207.3C148.8 207.3 144.3 210.9 142.9 215.9L142.7 215.9L142.7 214.3L142.7 154.8L142.7 138C144.6 138.2 146.5 138.4 148.4 138.4L159.9 138.4C161.8 138.4 163.7 138.3 165.6 138L165.6 154.7L165.6 214.3L165.5 214.3Z" />
						<path id="Layer" class="shp1" d="M165.2 215.9L165.1 215.9C163.6 211.2 159.2 207.9 154 207.9C148.7 207.9 144.2 211.4 142.8 216.3C142.7 216.3 142.7 216.3 142.6 216.2C140.3 215.4 138.2 214.4 136.2 213.1L136.2 161.1C136.2 159.2 134 157.7 131.2 157.7C129.8 157.7 128.6 158.1 127.7 158.7C126.8 159.3 126.3 160.2 126.3 161.1L126.3 203.9C126 203.5 125.8 203.1 125.5 202.8C125.3 202.5 125.1 202.2 125 202C124.6 201.3 124.2 200.7 123.8 200C123.8 200 123.8 200 123.8 199.9C123.5 199.4 123.3 198.9 123.1 198.5L123.1 198.5C122.9 198 122.7 197.6 122.5 197.1C122.5 197 122.4 197 122.4 196.9C122.2 196.4 122 195.9 121.8 195.4C121.6 194.9 121.4 194.3 121.3 193.8C120.4 190.7 119.9 187.5 119.9 184.2L119.9 179.8L119.9 178.9L119.9 174.3L119.9 155C119.9 153 121.2 151.2 123.2 149.9C125.3 148.6 128.1 147.8 131.3 147.8C137.6 147.8 142.7 151 142.7 155L142.7 214.5L142.7 216.1L142.9 216.1C144.3 211.1 148.8 207.5 154.1 207.5C159.4 207.5 163.8 211 165.2 215.9Z" />
						<path id="Layer" class="shp4" d="M143.8 28.2L143.8 27C143.8 22.3 147.6 18.5 152.2 18.5L155.8 18.5C160.5 18.5 164.2 22.3 164.2 27L164.2 28.2L164.2 48.6L143.8 48.6L143.7 48.6L143.7 28.2L143.8 28.2Z" />
						<path id="Layer" class="shp4" d="M159 55.6L159 62.6C158.1 64.5 156.2 65.8 154 65.8C151.8 65.8 149.9 64.5 149 62.6L149 55.6L159 55.6Z" />
						<path id="Layer" fill-rule="evenodd" class="shp6" d="M149 62.6C149 62.6 148.9 100.1 148.9 112.1C148.9 114.1 147.3 115.7 145.3 115.7C141.4 115.7 137.9 117.3 135.3 119.8C132.7 122.4 131.2 125.9 131.2 129.8L131.2 134.8C130.8 134.6 130.5 134.5 130.1 134.3C126.3 132.5 122.9 130.2 119.8 127.5C117.3 125.3 115.1 122.8 113.2 120.1L113.3 120C114.8 115.4 117.1 111.2 119.9 107.5C122.1 104.6 123.1 100.9 122.9 97.3C122.9 96.9 122.9 96.5 122.9 96.2L122.9 67.7C122.9 63.3 124.4 59.1 127 55.7C127.2 55.5 127.3 55.3 127.5 55C128.3 55.4 129.2 55.7 130.2 55.7L149 55.7L149 62.6ZM139.5 99.9L139.5 70.4C139.5 69.1 138.5 68.1 137.2 68.1C136.6 68.1 136 68.4 135.6 68.8C135.2 69.2 134.9 69.8 134.9 70.4L134.9 99.9C134.9 101.2 135.9 102.2 137.2 102.2C138.4 102.2 139.5 101.2 139.5 99.9Z" />
						<path id="Layer" class="shp5" d="M143.8 28.2L143.8 48.6L139.6 48.6C137.7 48.6 136 47.8 134.8 46.6C133.6 45.4 132.8 43.7 132.8 41.8C132.8 39.7 133.7 37.8 135.2 36.3L143.8 28.2Z" />
						<path id="Layer" class="shp1" d="M142.6 138L142.6 154.7C142.6 150.7 137.5 147.5 131.2 147.5C128.1 147.5 125.2 148.3 123.1 149.6C121 150.9 119.8 152.7 119.8 154.7L119.8 174L119.8 169.3L119.8 140.4L119.8 127.5C122.9 130.2 126.3 132.5 130.1 134.3C130.5 134.5 130.8 134.6 131.2 134.8C134.7 136.4 138.6 137.5 142.6 138Z" />
						<path id="Layer" class="shp4" d="M139.5 70.4L139.5 99.9C139.5 101.2 138.5 102.2 137.2 102.2C135.9 102.2 134.9 101.2 134.9 99.9L134.9 70.4C134.9 69.8 135.2 69.2 135.6 68.8C136 68.4 136.6 68.1 137.2 68.1C138.4 68.1 139.5 69.2 139.5 70.4Z" />
						<path id="Layer" class="shp5" d="M136.1 161.1L136.1 213.1C134.1 211.9 132.3 210.5 130.6 208.9C130.3 208.7 130.1 208.4 129.9 208.2C129.7 208 129.4 207.7 129.2 207.5C128.7 207 128.3 206.5 127.8 206C127.2 205.3 126.7 204.6 126.2 203.9L126.2 203.9L126.2 161.1C126.2 160.2 126.7 159.3 127.6 158.7C128.5 158.1 129.8 157.7 131.1 157.7C133.9 157.7 136.1 159.2 136.1 161.1Z" />
						<path id="Layer" class="shp0" d="M127 55.6C124.3 59 122.9 63.2 122.9 67.6L122.9 96.1C122.9 96.5 122.9 96.9 122.9 97.2C123.1 100.9 122.1 104.5 119.9 107.4C117 111.1 114.8 115.4 113.3 119.9L113.2 120C108.3 113.1 105.5 104.6 105.5 95.5L105.5 47.8C105.5 38.6 108.4 30.1 113.3 23.2C115.8 30.8 120.3 37.4 126.3 42.5C123.9 43.9 122.7 47 124 49.8L125.1 52.2C125.6 53.3 126.5 54.2 127.6 54.8C127.3 55.2 127.1 55.4 127 55.6Z" />
						<path id="Layer" class="shp3" d="M45 214.1L45 203.5L119.8 169.3C119.8 172.5 119.8 175.6 119.8 178.6L119.8 179.5L45.1 214.5L45 214.5L45 214.1L45 214.1Z" />
						<path id="Layer" class="shp1" d="M119.8 140.5L119.8 169.4L45 203.6L45 175.7L64.7 166.4L64.7 166.5L77.1 174.6L98.2 164.4L98.9 150.3L119.8 140.5Z" />
						<path id="Layer" fill-rule="evenodd" class="shp0" d="M105.3 55.6L105.3 96L102.6 96C90 96 79.8 85.7 79.8 73.2L79.8 59.3C79.8 58.3 80.2 57.3 80.9 56.7L85.8 61.3C86.8 62.2 88 62.7 89.3 62.7L95.8 62.7C97.1 62.7 98.4 62.2 99.3 61.3L105.3 55.6ZM95.4 83L95.4 69.6C95.4 68 94.1 66.7 92.5 66.7C90.9 66.7 89.6 68 89.6 69.6L89.6 83C89.6 84.6 90.9 86 92.5 86C94.1 85.9 95.4 84.6 95.4 83Z" />
						<path id="Layer" class="shp5" d="M105.3 55.6L99.3 61.2C98.4 62.1 97.1 62.6 95.8 62.6L89.3 62.6C88 62.6 86.8 62.1 85.8 61.2L80.9 56.6C81.6 55.9 82.5 55.5 83.5 55.5L83.6 55.5L91.1 55.5L94.1 55.5L101.6 55.5L105.3 55.5L105.3 55.6Z" />
						<path id="Layer" class="shp0" d="M94.1 31.7L101.6 31.7L101.6 55.6L94.1 55.6L94.1 31.7Z" />
						<path id="Layer" class="shp2" d="M101.6 29.9L101.6 31.7L94.1 31.7L94.1 29.9C94.9 29 95.4 28.6 96.3 27.7L99.5 27.7C100.3 28.6 100.7 29 101.6 29.9Z" />
						<path id="Layer" class="shp4" d="M98.9 150.3L98.2 164.4L77.1 174.6L64.7 166.5L64.7 166.4L98.9 150.3Z" />
						<path id="Layer" class="shp5" d="M95.4 69.6L95.4 83C95.4 84.6 94.1 86 92.5 86L92.5 86C90.9 86 89.6 84.7 89.6 83L89.6 69.6C89.6 68 90.9 66.7 92.5 66.7L92.5 66.7C94.1 66.6 95.4 68 95.4 69.6Z" />
						<path id="Layer" class="shp0" d="M83.5 31.7L91 31.7L91 55.6L83.5 55.6L83.5 31.7Z" />
						<path id="Layer" class="shp2" d="M91 29.9L91 31.7L83.5 31.7L83.5 29.9C84.3 29 84.8 28.6 85.7 27.7L88.9 27.7C89.7 28.6 90.2 29 91 29.9Z" />
						<path id="Layer" class="shp0" d="M45 214.6L45 247.1L3.3 247.1L3.3 214.2L3.4 214.3C7.6 216.8 12.1 218.5 16.7 219.4L16.7 232.4C16.7 236.5 20 239.8 24.1 239.8L24.1 239.8C28.2 239.8 31.5 236.5 31.5 232.4L31.5 219.4C36.1 218.5 40.6 216.9 44.7 214.4L44.7 214.8L45 214.6Z" />
						<path id="Layer" class="shp1" d="M45 175.6L45 175.7L44.8 175.8L44.8 214.2C40.7 216.7 36.2 218.4 31.6 219.2L31.6 180.7C36.3 179.9 40.8 178.2 45 175.6Z" />
						<path id="Layer" class="shp0" d="M45 143.7L45 175.7C40.8 178.3 36.2 180 31.6 180.9L31.6 158C31.6 157.9 31.6 157.9 31.6 157.8C31.6 153.7 28.3 150.4 24.2 150.4C20.1 150.4 16.8 153.7 16.8 157.8L16.8 180.9C12.2 180 7.8 178.4 3.6 175.9L3.3 175.7L3.3 143.7C3.3 140.3 5.9 137.5 9.2 137.1C9.5 137.1 9.7 137.1 10 137.1L38.3 137.1C38.6 137.1 38.8 137.1 39.1 137.1C42.4 137.4 45 140.2 45 143.7Z" />
						<path id="Layer" class="shp2" d="M3.3 247.1L45 247.1C45 252.5 40.6 256.9 35.2 256.9L13 256.9C10.3 256.9 7.9 255.8 6.1 254C4.4 252.2 3.3 249.8 3.3 247.1Z" />
						<path id="Layer" class="shp3" d="M39.1 137L39.1 137C38.8 137 38.6 137 38.3 137L10 137C9.7 137 9.5 137 9.2 137L9.2 137C9.7 132.9 11.2 129.3 13.4 126.5C16.2 123 19.9 120.9 24.1 120.9C31.7 121 38 127.9 39.1 137Z" />
						<path id="Layer" class="shp5" d="M31.6 157.9C31.5 161.9 28.2 165.1 24.2 165.1C20.1 165.1 16.8 161.8 16.8 157.7C16.8 153.6 20.1 150.3 24.2 150.3C28.3 150.3 31.6 153.6 31.6 157.7C31.6 157.8 31.6 157.9 31.6 157.9Z" />
						<path id="Layer" class="shp4" d="M31.6 219.3L31.6 232.3C31.6 236.4 28.3 239.7 24.2 239.7L24.2 239.7C20.1 239.7 16.8 236.4 16.8 232.3L16.8 219.3L16.8 180.8L16.8 157.7C16.8 161.8 20.1 165.1 24.2 165.1C28.2 165.1 31.5 161.9 31.6 157.9L31.6 180.8L31.6 219.3Z" />
						<path id="Layer" class="shp1" d="M16.8 180.8L16.8 219.3C12.2 218.4 7.7 216.7 3.5 214.2L3.4 214.1L3.4 175.6L3.7 175.8C7.7 178.3 12.2 180 16.8 180.8Z" />
					</g>
					<g id="Layer">
						<path id="Layer" class="shp7" d="M194.7 23.3C187 12.3 174.2 5.1 159.7 5.1L148.2 5.1C133.8 5.1 121 12.3 113.2 23.3C108.3 30.3 105.4 38.7 105.4 47.9L105.4 95.6C105.4 104.7 108.2 113.1 113.1 120.1C115 122.8 117.2 125.3 119.7 127.5C122.8 130.2 126.2 132.5 130 134.3C130.4 134.5 130.7 134.6 131.1 134.8C134.7 136.4 138.5 137.5 142.5 138C144.4 138.2 146.3 138.4 148.2 138.4L159.7 138.4C161.6 138.4 163.5 138.3 165.4 138C169.4 137.5 173.2 136.4 176.8 134.8C177.2 134.6 177.5 134.5 177.8 134.3C181.6 132.5 185.1 130.2 188.2 127.5C190.7 125.3 192.9 122.8 194.8 120.1C199.7 113.2 202.5 104.7 202.5 95.6L202.5 47.9C202.5 38.8 199.6 30.3 194.7 23.3Z" />
						<path id="Layer" class="shp7" d="M188.2 140.5L188.2 127.6" />
						<path id="Layer" class="shp7" d="M188.2 174.1L188.2 169.4" />
						<path id="Layer" class="shp7" d="M130.6 208.9C132.3 210.5 134.1 211.9 136.1 213.1C138.1 214.3 140.3 215.4 142.5 216.2C142.6 216.2 142.6 216.3 142.7 216.3C144.1 211.4 148.6 207.9 153.9 207.9C159.1 207.9 163.5 211.3 165 215.9C165.1 216 165.1 216.1 165.1 216.2C165.2 216.2 165.2 216.2 165.3 216.1C166.8 215.6 168.3 214.9 169.6 214.2C170.3 213.8 171 213.4 171.7 213C172.4 212.6 173.1 212.1 173.7 211.7C174.9 210.8 176.1 209.8 177.2 208.8" />
						<path id="Layer" class="shp7" d="M123 198.4C123.2 198.9 123.5 199.4 123.7 199.8" />
						<path id="Layer" class="shp7" d="M122.4 197C122.6 197.5 122.8 198 123 198.4" />
						<path id="Layer" class="shp7" d="M121.7 195.3C121.9 195.8 122.1 196.3 122.3 196.8" />
						<path id="Layer" class="shp7" d="M119.8 169.4L119.8 174.1" />
						<path id="Layer" class="shp7" d="M119.8 127.6L119.8 140.5" />
						<path id="Layer" class="shp7" d="M188.2 178.7C188.2 175.7 188.2 172.6 188.2 169.4L188.2 140.5L209 150.3L243.3 166.4L263 175.7L263.2 175.8L263.2 214.2L263.2 214.6L263 214.5L262.9 214.5L188.2 179.5" />
						<path id="Layer" class="shp7" d="M304.7 214.1L304.7 247.1" />
						<path id="Layer" class="shp7" d="M263 247.1L263 214.6L263 214.2L263 203.6L263 175.7L263 175.6L263 143.6C263 140.2 265.6 137.4 268.9 137C269.2 137 269.4 137 269.7 137L298 137C298.3 137 298.5 137 298.8 137C302.1 137.4 304.7 140.2 304.7 143.6L304.7 175.6" />
						<path id="Layer" class="shp7" d="M268.9 137C270 127.9 276.3 121 283.9 121C288.1 121 291.9 123.1 294.6 126.6C296.8 129.4 298.3 133 298.8 137.1" />
						<path id="Layer" class="shp7" d="M304.7 247.1C304.7 249.8 303.6 252.2 301.8 254C300 255.8 297.6 256.9 294.9 256.9L272.7 256.9C267.3 256.9 262.9 252.5 262.9 247.1L304.7 247.1L304.7 247.1Z" />
						<path id="Layer" class="shp7" d="M262.6 214.1L263 214.1L263.1 214.2C263.1 214.2 263.2 214.2 263.2 214.3C267.3 216.8 271.8 218.5 276.4 219.3" />
						<path id="Layer" class="shp7" d="M291.2 219.3C295.8 218.4 300.3 216.7 304.5 214.2L304.6 214.1L304.6 175.6L304.3 175.8C300.2 178.3 295.7 180 291.1 180.8" />
						<path id="Layer" class="shp7" d="M276.4 180.8C271.7 179.9 267.2 178.2 263 175.6" />
						<path id="Layer" class="shp7" d="M291.2 157.7C291.2 161.8 287.9 165.1 283.8 165.1C279.8 165.1 276.5 161.9 276.4 157.9C276.4 157.8 276.4 157.8 276.4 157.7C276.4 153.6 279.7 150.3 283.8 150.3C287.9 150.3 291.2 153.7 291.2 157.7Z" />
						<path id="Layer" class="shp7" d="M276.5 157.7L276.5 157.7L276.5 157.9L276.5 180.8L276.5 219.3L276.5 232.3C276.5 236.4 279.8 239.7 283.9 239.7L283.9 239.7C288 239.7 291.3 236.4 291.3 232.3L291.3 219.3L291.3 180.8L291.3 157.7L291.3 157.7" />
						<path id="Layer" class="shp7" d="M143.8 48.6L143.8 28.2L143.8 27C143.8 22.3 147.6 18.5 152.2 18.5L155.8 18.5C160.5 18.5 164.2 22.3 164.2 27L164.2 28.2L164.2 48.6L143.8 48.6Z" />
						<path id="Layer" class="shp7" d="M164.2 28.1L172.9 36.2C174.5 37.7 175.3 39.6 175.3 41.7C175.3 43.6 174.5 45.3 173.3 46.5C172.1 47.7 170.4 48.5 168.5 48.5L164.2 48.5" />
						<path id="Layer" class="shp7" d="M143.8 28.1L143.8 28.1L135.1 36.2C133.5 37.7 132.7 39.6 132.7 41.7C132.7 43.6 133.5 45.3 134.7 46.5C135.9 47.7 137.6 48.5 139.5 48.5L143.7 48.5L143.8 48.5" />
						<path id="Layer" class="shp7" d="M175.3 41.8L179.1 41.9C180.1 41.9 180.9 42.2 181.7 42.6C184.1 44 185.3 47.1 184 49.9L182.9 52.3C182.4 53.3 181.6 54.2 180.7 54.8C180.6 54.9 180.5 54.9 180.4 55C179.6 55.4 178.7 55.7 177.7 55.7" />
						<path id="Layer" class="shp7" d="M127 55.6L126.9 55.6" />
						<path id="Layer" class="shp7" d="M159 55.6L177.8 55.6" />
						<path id="Layer" class="shp7" d="M132.6 41.8L128.8 41.9C127.8 41.9 127 42.2 126.2 42.6C123.8 44 122.6 47.1 123.9 49.9L125 52.3C125.5 53.4 126.4 54.3 127.5 54.9C128.3 55.3 129.2 55.6 130.2 55.6L149 55.6" />
						<path id="Layer" class="shp7" d="M149 62.6L149 55.6L159 55.6L159 62.6" />
						<path id="Layer" class="shp7" d="M170.8 102.2C169.5 102.2 168.5 101.2 168.5 99.9L168.5 70.4C168.5 69.1 169.5 68.1 170.8 68.1C171.4 68.1 172 68.4 172.4 68.8C172.8 69.2 173.1 69.8 173.1 70.4L173.1 99.9C173.1 101.2 172.1 102.2 170.8 102.2Z" />
						<path id="Layer" class="shp7" d="M137.2 102.2C138.5 102.2 139.5 101.2 139.5 99.9L139.5 70.4C139.5 69.1 138.5 68.1 137.2 68.1C136.6 68.1 136 68.4 135.6 68.8C135.2 69.2 134.9 69.8 134.9 70.4L134.9 99.9C134.9 101.2 135.9 102.2 137.2 102.2Z" />
						<path id="Layer" class="shp7" d="M181.7 42.6C187.7 37.6 192.2 30.9 194.7 23.3" />
						<path id="Layer" class="shp7" d="M113.3 23.3C115.8 30.9 120.3 37.5 126.3 42.6" />
						<path id="Layer" class="shp7" d="M113.3 120C114.8 115.4 117.1 111.2 119.9 107.5C122.1 104.6 123.1 100.9 122.9 97.3C122.9 96.9 122.9 96.5 122.9 96.2L122.9 67.7C122.9 63.3 124.4 59.1 127 55.7C127.2 55.5 127.3 55.3 127.5 55" />
						<path id="Layer" class="shp7" d="M180.5 55C180.7 55.2 180.9 55.4 181 55.7C183.7 59.1 185.1 63.3 185.1 67.7L185.1 96.2C185.1 96.6 185.1 97 185.1 97.3C184.9 101 185.9 104.6 188.1 107.5C190.9 111.2 193.2 115.5 194.7 120" />
						<path id="Layer" class="shp7" d="M224.5 55.6L224.5 55.6C225.6 55.6 226.5 56 227.1 56.7C227.8 57.4 228.2 58.3 228.2 59.3L228.2 73.2C228.2 83.6 219.8 96 209.4 96L202.7 96L202.7 55.6L206.4 55.6" />
						<path id="Layer" class="shp7" d="M214 55.6L217 55.6" />
						<path id="Layer" class="shp7" d="M214 31.7L214 55.6L206.4 55.6L206.4 31.7" />
						<path id="Layer" class="shp7" d="M214 31.7L214 29.9C213.1 29 212.7 28.6 211.8 27.7L208.6 27.7C207.8 28.5 207.3 29 206.4 29.9L206.4 31.7L214 31.7Z" />
						<path id="Layer" class="shp7" d="M224.5 31.7L224.5 55.6L217 55.6L217 31.7" />
						<path id="Layer" class="shp7" d="M224.5 31.7L224.5 29.9C223.7 29 223.2 28.6 222.3 27.7L219.1 27.7C218.3 28.5 217.8 29 216.9 29.9L216.9 31.7L224.5 31.7Z" />
						<path id="Layer" class="shp7" d="M202.7 55.6L208.7 61.2C209.6 62.1 210.9 62.6 212.2 62.6L218.7 62.6C220 62.6 221.2 62.1 222.2 61.2L227.1 56.6" />
						<path id="Layer" class="shp7" d="M215.5 85.9L215.5 85.9C213.9 85.9 212.5 84.6 212.5 82.9L212.5 69.5C212.5 67.9 213.8 66.6 215.4 66.6L215.4 66.6C217 66.6 218.3 67.9 218.3 69.5L218.3 83C218.4 84.6 217.1 85.9 215.5 85.9Z" />
						<path id="Layer" class="shp7" d="M83.5 55.6L83.5 55.6C82.4 55.6 81.5 56 80.9 56.7C80.2 57.4 79.8 58.3 79.8 59.3L79.8 73.2C79.8 85.8 90.1 96 102.6 96L105.3 96L105.3 55.6L101.6 55.6" />
						<path id="Layer" class="shp7" d="M94.1 55.6L91 55.6" />
						<path id="Layer" class="shp7" d="M94.1 31.7L94.1 55.6L101.6 55.6L101.6 31.7" />
						<path id="Layer" class="shp7" d="M94.1 31.7L94.1 29.9C94.9 29 95.4 28.6 96.3 27.7L99.5 27.7C100.4 28.5 100.8 29 101.7 29.9L101.7 31.7L94.1 31.7Z" />
						<path id="Layer" class="shp7" d="M83.5 31.7L83.5 55.6L91 55.6L91 31.7" />
						<path id="Layer" class="shp7" d="M83.5 31.7L83.5 29.9C84.3 29 84.8 28.6 85.7 27.7L88.9 27.7C89.7 28.5 90.2 29 91.1 29.9L91.1 31.7L83.5 31.7Z" />
						<path id="Layer" class="shp7" d="M105.3 55.6L99.3 61.2C98.4 62.1 97.1 62.6 95.8 62.6L89.3 62.6C88 62.6 86.8 62.1 85.8 61.2L80.9 56.6" />
						<path id="Layer" class="shp7" d="M92.5 85.9L92.5 85.9C94.1 85.9 95.4 84.6 95.4 82.9L95.4 69.5C95.4 67.9 94.1 66.6 92.5 66.6L92.5 66.6C90.9 66.6 89.6 67.9 89.6 69.5L89.6 83C89.6 84.6 90.9 85.9 92.5 85.9Z" />
						<path id="Layer" class="shp7" d="M142.6 154.8L142.6 138" />
						<path id="Layer" class="shp7" d="M165.5 214.3L165.5 215.9L165.3 215.9C163.9 210.9 159.4 207.3 154.1 207.3C148.8 207.3 144.3 210.9 142.9 215.9L142.7 215.9L142.7 214.3" />
						<path id="Layer" class="shp7" d="M165.5 138L165.5 154.8" />
						<path id="Layer" class="shp7" d="M188.2 169.4L263 203.6L263.2 203.7" />
						<path id="Layer" class="shp7" d="M209.1 150.3L209.8 164.4L231 174.6L243.3 166.5" />
						<path id="Layer" class="shp7" d="M119.8 178.7C119.8 175.7 119.8 172.6 119.8 169.4L119.8 140.5L99 150.3L64.7 166.4L45 175.7L44.8 175.8L44.8 214.2L44.8 214.6L45 214.5L45.1 214.5L119.8 179.5" />
						<path id="Layer" class="shp7" d="M3.3 175.6L3.3 143.6C3.3 140.2 5.9 137.4 9.2 137C9.5 137 9.7 137 10 137L38.3 137C38.6 137 38.8 137 39.1 137C42.4 137.4 45 140.2 45 143.6L45 175.6L45 175.7L45 203.6L45 214.2L45 214.6L45 247.1" />
						<path id="Layer" class="shp7" d="M3.3 247.1L3.3 214.1" />
						<path id="Layer" class="shp7" d="M9.2 137C9.7 132.9 11.2 129.3 13.4 126.5C16.2 123 19.9 120.9 24.1 120.9C31.6 120.9 37.9 127.8 39.1 136.9" />
						<path id="Layer" class="shp7" d="M3.3 247.1C3.3 249.8 4.4 252.2 6.2 254C8 255.8 10.4 256.9 13.1 256.9L35.3 256.9C40.7 256.9 45.1 252.5 45.1 247.1L3.3 247.1L3.3 247.1Z" />
						<path id="Layer" class="shp7" d="M31.6 219.3C36.2 218.4 40.7 216.8 44.8 214.3C44.8 214.3 44.9 214.3 44.9 214.2L45 214.1L45.4 214.1" />
						<path id="Layer" class="shp7" d="M16.8 180.8C12.2 179.9 7.8 178.3 3.6 175.8L3.3 175.6L3.3 214.1L3.4 214.2C7.6 216.7 12.1 218.4 16.7 219.3" />
						<path id="Layer" class="shp7" d="M45 175.6C40.8 178.2 36.2 179.9 31.6 180.8" />
						<path id="Layer" class="shp7" d="M16.8 157.7C16.8 161.8 20.1 165.1 24.2 165.1C28.2 165.1 31.5 161.9 31.6 157.9C31.6 157.8 31.6 157.8 31.6 157.7C31.6 153.6 28.3 150.3 24.2 150.3C20.1 150.3 16.8 153.7 16.8 157.7Z" />
						<path id="Layer" class="shp7" d="M16.8 157.7L16.8 157.7L16.8 180.8L16.8 219.3L16.8 232.3C16.8 236.4 20.1 239.7 24.2 239.7L24.2 239.7C28.3 239.7 31.6 236.4 31.6 232.3L31.6 219.3L31.6 180.8L31.6 157.9L31.6 157.7L31.6 157.7" />
						<path id="Layer" class="shp7" d="M119.8 169.4L45 203.6L44.8 203.7" />
						<path id="Layer" class="shp7" d="M98.9 150.3L98.2 164.4L77.1 174.6L64.7 166.5" />
						<path id="Layer" class="shp7" d="M171.9 213.2L171.9 161.2C171.9 159.3 174.1 157.8 176.9 157.8C178.3 157.8 179.5 158.2 180.4 158.8C181.3 159.4 181.8 160.3 181.8 161.2L181.8 204" />
						<path id="Layer" class="shp7" d="M177.4 208.9C178.4 208 179.3 207 180.2 206C180.8 205.3 181.3 204.6 181.8 203.9C182.7 202.6 183.6 201.3 184.3 199.9C185.4 197.9 186.2 195.8 186.9 193.6C187.8 190.5 188.3 187.3 188.3 184L188.3 179.6L188.3 178.7L188.3 174.1L188.3 154.8C188.3 152.8 187 151 185 149.7C182.9 148.4 180.1 147.6 176.9 147.6C170.6 147.6 165.5 150.8 165.5 154.8L165.5 214.3" />
						<path id="Layer" class="shp7" d="M126.2 203.9L126.2 161.1C126.2 160.2 126.7 159.3 127.6 158.7C128.5 158.1 129.8 157.7 131.1 157.7C133.8 157.7 136.1 159.2 136.1 161.1L136.1 213.1" />
						<path id="Layer" class="shp7" d="M142.6 214.3L142.6 154.8C142.6 150.8 137.5 147.6 131.2 147.6C128.1 147.6 125.2 148.4 123.1 149.7C121 151 119.8 152.8 119.8 154.8L119.8 174.1L119.8 178.7L119.8 179.6L119.8 184C119.8 187.4 120.3 190.6 121.2 193.6C121.4 194.1 121.5 194.7 121.7 195.2C121.9 195.7 122.1 196.2 122.3 196.7C122.3 196.8 122.4 196.8 122.4 196.9C122.6 197.4 122.8 197.9 123 198.3L123 198.3C123.2 198.8 123.5 199.3 123.7 199.7L123.7 199.8C124.1 200.5 124.4 201.2 124.9 201.8C125.1 202.1 125.3 202.4 125.4 202.6C125.7 203 125.9 203.4 126.2 203.7L126.2 203.7C126.7 204.4 127.2 205.1 127.8 205.8C128.2 206.3 128.7 206.8 129.2 207.3C129.4 207.5 129.7 207.8 129.9 208C130.1 208.2 130.4 208.5 130.6 208.7" />
						<path id="Layer" class="shp7" d="M176.8 134.9L176.8 129.9C176.8 122.1 170.5 115.8 162.7 115.8L162.6 115.8C160.6 115.8 159 114.2 159 112.2L159 62.7C158.1 64.6 156.2 65.9 154 65.9C151.8 65.9 149.9 64.6 149 62.7C149 62.7 148.9 100.2 148.9 112.2C148.9 114.2 147.3 115.8 145.3 115.8C141.4 115.8 137.9 117.4 135.3 119.9C132.7 122.5 131.2 126 131.2 129.9L131.2 134.9" />
					</g>
				</g>
			</g>
		</g>
	</g>
</svg>